<?xml version="1.0" encoding="UTF-8"?>
<svg id="Capa_1" xmlns="http://www.w3.org/2000/svg" version="1.1" viewBox="0 0 118.948 21">
  <!-- Generator: Adobe Illustrator 29.3.1, SVG Export Plug-In . SVG Version: 2.1.0 Build 151)  -->
  <path d="M7.168,10.5H.443v-.419c.312,0,.552-.022.721-.067.168-.045.285-.144.351-.296.065-.152.099-.388.099-.708V3.96c0-.312-.028-.55-.086-.714-.058-.165-.169-.275-.333-.333-.164-.058-.414-.086-.751-.086v-.419h6.602l.073,2.082h-.468c-.058-.394-.142-.696-.252-.905-.111-.209-.296-.353-.555-.431-.259-.078-.634-.117-1.127-.117h-1.749v3.03h1.33c.395,0,.688-.029.881-.086.193-.057.322-.17.388-.338.066-.168.099-.417.099-.745h.456v2.857h-.456c0-.345-.032-.597-.099-.757-.065-.16-.194-.265-.388-.314s-.486-.074-.881-.074h-1.33v3.288h1.552c.452,0,.819-.024,1.103-.074s.507-.136.671-.259c.165-.123.302-.297.413-.523.11-.226.224-.515.339-.868h.455l-.332,2.328Z" fill="#21145f"/>
  <path d="M10.689,10.5h-2.832v-.406c.205-.008.375-.039.511-.093.136-.053.269-.146.4-.277.131-.131.287-.312.468-.542l2.192-2.82.443.616h-.197l-1.429,1.995c-.082.099-.166.216-.252.351-.087.136-.13.269-.13.4,0,.115.054.205.16.271s.328.099.665.099v.406ZM16.133,10.5h-3.708v-.406h.111c.254,0,.431-.025.529-.074s.148-.139.148-.271c0-.131-.029-.269-.087-.413-.058-.144-.168-.342-.332-.597l-.727-1.146-.432-.751-.222-.222-1.921-2.808c-.189-.254-.343-.454-.462-.597s-.255-.245-.406-.302c-.152-.058-.368-.086-.646-.086v-.419h3.657v.419h-.135c-.23,0-.395.027-.493.08-.099.054-.147.15-.147.29,0,.106.039.232.117.375.077.144.172.295.283.456.11.16.207.322.289.487l.751,1.256.21.209,2.34,3.362c.205.288.396.48.572.579.177.098.413.156.709.172v.406ZM14.273,3.948l-1.773,2.279-.431-.579h.185l1.244-1.761c.099-.156.179-.293.24-.413.062-.119.092-.236.092-.351,0-.098-.051-.172-.153-.222-.104-.049-.302-.074-.598-.074v-.419h2.895v.419c-.255.017-.467.056-.635.117s-.33.168-.486.32c-.156.152-.35.38-.579.684Z" fill="#21145f"/>
  <path d="M21.873,10.5h-3.781v-.419c.353,0,.613-.026.782-.08.168-.053.281-.168.339-.345.057-.176.086-.449.086-.819V3h-.715c-.451,0-.79.049-1.016.148s-.388.269-.486.511-.193.589-.283,1.041h-.456l.136-2.291h7.032l.099,2.291h-.456c-.09-.452-.185-.798-.283-1.041s-.259-.413-.48-.511-.562-.148-1.021-.148h-.702v5.838c0,.37.026.643.08.819.053.177.166.292.339.345.172.054.435.08.788.08v.419Z" fill="#21145f"/>
  <path d="M30.974,10.5h-6.725v-.419c.312,0,.552-.022.721-.067.168-.045.285-.144.351-.296.065-.152.099-.388.099-.708V3.96c0-.312-.028-.55-.086-.714-.058-.165-.169-.275-.333-.333-.164-.058-.414-.086-.751-.086v-.419h6.602l.073,2.082h-.468c-.058-.394-.142-.696-.252-.905-.111-.209-.296-.353-.555-.431-.259-.078-.634-.117-1.127-.117h-1.749v3.03h1.33c.395,0,.688-.029.881-.086.193-.057.322-.17.388-.338.066-.168.099-.417.099-.745h.456v2.857h-.456c0-.345-.032-.597-.099-.757-.065-.16-.194-.265-.388-.314s-.486-.074-.881-.074h-1.33v3.288h1.552c.452,0,.819-.024,1.103-.074s.507-.136.671-.259c.165-.123.302-.297.413-.523.11-.226.224-.515.339-.868h.455l-.332,2.328Z" fill="#21145f"/>
  <path d="M39.583,10.599h-.727l-4.976-6.515h-.382l-.271-.518c-.147-.213-.281-.371-.4-.474-.119-.103-.242-.172-.369-.209-.127-.037-.285-.056-.474-.056v-.419h2.377l4.482,5.899h.062v-3.892c0-.361-.024-.659-.073-.893-.05-.234-.154-.408-.314-.523-.16-.115-.421-.172-.782-.172v-.419h2.968v.419c-.328,0-.572.06-.732.179s-.265.297-.314.536c-.049.238-.073.546-.073.924v6.133ZM34.939,10.5h-2.955v-.419c.328,0,.574-.059.738-.178s.275-.308.333-.567c.057-.258.086-.593.086-1.003V3.209h.678v5.407c0,.411.028.72.086.93s.168.351.332.425c.165.074.398.111.702.111v.419Z" fill="#21145f"/>
  <path d="M41.959,10.673h-.432l-.11-2.661h.455c.14.559.304.985.493,1.281.188.295.419.497.689.604.271.107.6.16.985.16.296,0,.557-.041.782-.123s.404-.213.535-.394c.132-.181.197-.419.197-.714,0-.361-.094-.659-.283-.893-.188-.234-.436-.439-.738-.616-.305-.177-.62-.355-.949-.536-.345-.189-.673-.388-.985-.598-.312-.209-.564-.466-.757-.77-.193-.304-.289-.682-.289-1.133,0-.443.108-.812.326-1.108.217-.295.511-.521.88-.677.37-.156.789-.234,1.257-.234.353,0,.632.029.837.086.205.058.37.117.493.179s.233.092.332.092c.091,0,.169-.024.234-.074s.115-.136.147-.259h.37l.073,2.5h-.431c-.173-.706-.404-1.217-.696-1.534-.291-.316-.725-.47-1.299-.462-.427,0-.754.091-.979.271-.226.181-.339.452-.339.813,0,.304.087.562.259.776.173.214.4.402.684.566.283.165.581.333.894.505.271.148.543.3.818.456.275.156.525.334.752.536.226.201.406.439.541.714.136.275.204.597.204.967,0,.484-.115.895-.346,1.231-.229.337-.548.591-.954.763-.406.173-.868.259-1.386.259-.419,0-.753-.03-1.004-.092-.25-.062-.445-.124-.585-.185-.14-.062-.254-.093-.345-.093-.09,0-.166.037-.228.11-.062.074-.097.169-.104.284Z" fill="#21145f"/>
  <path d="M51.442,10.5h-3.719v-.419c.369,0,.638-.031.807-.092.168-.062.274-.18.32-.357.045-.177.067-.441.067-.794v-4.754c0-.32-.021-.573-.062-.757-.041-.185-.144-.314-.308-.388-.165-.074-.439-.111-.825-.111v-.419h3.731v.419c-.378,0-.65.037-.819.111-.168.074-.271.203-.308.388-.037.185-.056.437-.056.757v4.754c0,.353.022.618.068.794.045.177.151.295.32.357.168.062.429.092.781.092v.419Z" fill="#21145f"/>
  <path d="M56.455,10.66c-.829,0-1.542-.168-2.137-.505-.596-.337-1.052-.819-1.367-1.447-.316-.628-.475-1.381-.475-2.26,0-.846.16-1.583.48-2.211s.776-1.115,1.367-1.459,1.302-.517,2.131-.517,1.539.168,2.131.505c.591.337,1.042.809,1.354,1.417.312.607.468,1.326.468,2.155,0,.87-.158,1.63-.474,2.278-.316.648-.771,1.151-1.361,1.509-.591.357-1.297.536-2.118.536ZM56.466,10.094c.821,0,1.436-.308,1.842-.924s.609-1.548.609-2.796c0-.747-.104-1.385-.313-1.915-.21-.529-.501-.936-.875-1.219s-.811-.425-1.312-.425c-.756,0-1.351.312-1.786.936-.435.624-.652,1.499-.652,2.623,0,1.158.205,2.067.616,2.728.41.661,1.034.992,1.871.992ZM55.864,1.903h-.641l1.269-1.601h1.317v.308l-1.945,1.293Z" fill="#21145f"/>
  <path d="M68.931,10.599h-.727l-4.976-6.515h-.382l-.271-.518c-.147-.213-.281-.371-.4-.474-.119-.103-.242-.172-.369-.209-.127-.037-.285-.056-.474-.056v-.419h2.377l4.482,5.899h.062v-3.892c0-.361-.024-.659-.073-.893-.05-.234-.154-.408-.314-.523-.16-.115-.421-.172-.782-.172v-.419h2.968v.419c-.328,0-.572.06-.732.179s-.265.297-.314.536c-.049.238-.073.546-.073.924v6.133ZM64.288,10.5h-2.955v-.419c.328,0,.574-.059.738-.178s.275-.308.333-.567c.057-.258.086-.593.086-1.003V3.209h.678v5.407c0,.411.028.72.086.93s.168.351.332.425c.165.074.398.111.702.111v.419Z" fill="#21145f"/>
  <path d="M7.426,19.737H.418v-.529c.345,0,.599-.029.764-.087.164-.057.271-.168.32-.332.049-.164.073-.406.073-.727v-4.692c0-.312-.022-.555-.067-.727-.045-.173-.15-.294-.314-.363-.164-.07-.418-.104-.764-.104v-.53h4.188v.53c-.353,0-.615.034-.788.104-.172.069-.285.19-.339.363-.053.172-.08.419-.08.738v4.878c0,.304.063.501.191.591.127.091.371.136.732.136h.752c.345,0,.63-.029.855-.087.226-.057.41-.155.555-.295.144-.14.265-.328.363-.566s.192-.538.283-.899h.628l-.345,2.599Z" fill="#21145f"/>
  <path d="M10.813,19.737h-2.809v-.529c.214,0,.388-.033.523-.099s.259-.185.37-.357c.11-.172.228-.419.351-.739l2.673-6.429h1.293l2.66,6.454c.164.394.339.688.523.88.185.193.417.29.696.29v.529h-3.954v-.529c.106,0,.216-.007.326-.019.111-.013.205-.047.283-.104s.117-.148.117-.271c0-.09-.024-.226-.073-.406-.05-.181-.107-.357-.173-.529l-.345-.899-.099-.32-1.157-3.227h-.05l-1.306,3.227-.099.32-.418,1.06c-.033.106-.07.226-.111.356-.041.132-.062.251-.062.357,0,.197.063.322.191.376.127.054.342.08.646.08v.529ZM13.51,17.139h-3.178l.222-.641h2.734l.222.641Z" fill="#21145f"/>
  <path d="M24.89,19.737h-4.36v-.529c.354,0,.61-.026.771-.08s.263-.167.308-.339c.045-.173.067-.427.067-.764v-4.877c0-.402-.082-.665-.246-.788s-.464-.185-.899-.185v-.53h3.979c.419,0,.823.029,1.213.087.39.057.737.164,1.041.319.304.156.544.376.721.659.176.283.265.651.265,1.103,0,.492-.091.905-.271,1.237-.181.333-.425.598-.732.795s-.661.337-1.06.419-.814.123-1.25.123c-.147,0-.304-.017-.468-.05-.164-.032-.316-.065-.456-.099v1.823c0,.328.027.574.08.739.054.164.179.272.376.326s.505.08.924.08v.529ZM24.164,15.673c.377,0,.691-.045.942-.136.25-.09.437-.265.56-.523.124-.258.186-.63.186-1.114,0-.566-.132-.983-.395-1.25s-.71-.4-1.343-.4c-.106,0-.203.002-.289.007-.086.004-.19.014-.314.03v3.325c.091.009.177.021.259.037s.214.024.395.024Z" fill="#21145f"/>
  <path d="M32.71,19.737h-4.2v-.529c.312,0,.551-.025.715-.074s.277-.156.339-.32.092-.414.092-.751v-4.927c0-.246-.026-.438-.08-.579-.053-.139-.162-.237-.326-.295s-.41-.086-.739-.086v-.53h4.016c.574,0,1.106.063,1.595.191.488.127.883.341,1.183.641.299.3.449.712.449,1.237,0,.451-.091.817-.271,1.096-.182.279-.419.497-.715.653s-.616.275-.961.357v.062c.132.082.271.215.419.399.147.186.349.458.604.819s.604.854,1.047,1.479c.188.271.384.443.585.517.201.074.441.111.721.111v.529h-2.796c-.279-.492-.509-.899-.689-1.22-.181-.319-.335-.585-.462-.794-.128-.209-.242-.4-.345-.572-.103-.173-.216-.357-.339-.555-.106-.188-.216-.308-.326-.357-.111-.049-.273-.073-.486-.073h-.247v1.908c0,.329.029.575.087.739.057.164.172.271.345.32.172.049.435.074.788.074v.529ZM31.491,15.562l.469.012c.41-.024.755-.09,1.034-.196.279-.107.49-.286.634-.536s.216-.598.216-1.041c0-.468-.125-.844-.375-1.127-.251-.283-.664-.425-1.238-.425-.132,0-.259.002-.382.007-.123.004-.242.014-.357.03v3.276Z" fill="#21145f"/>
  <path d="M44.545,19.737h-7.058v-.529c.279,0,.503-.022.672-.068.168-.045.289-.14.363-.283.073-.144.11-.367.11-.671v-4.89c0-.312-.024-.546-.073-.702-.05-.155-.156-.263-.32-.32-.165-.057-.415-.086-.752-.086v-.542h6.922l.074,2.229h-.628c-.058-.369-.138-.661-.24-.874-.104-.214-.27-.364-.499-.45-.23-.086-.575-.129-1.035-.129h-1.625v2.832h1.096c.411,0,.71-.02.899-.062.188-.041.31-.135.363-.283.053-.147.08-.382.08-.702h.579v2.846h-.579c0-.345-.027-.598-.08-.758-.054-.16-.175-.263-.363-.308-.189-.045-.488-.068-.899-.068h-1.096v3.067h1.453c.402,0,.734-.025.997-.074s.475-.136.635-.259.293-.293.4-.511c.106-.218.209-.495.308-.831h.591l-.295,2.426Z" fill="#21145f"/>
  <path d="M46.22,19.897h-.529l-.11-2.66h.615c.132.525.277.93.438,1.213s.354.479.585.585c.229.107.509.16.837.16.263,0,.512-.035.745-.104.234-.069.426-.185.573-.345s.222-.376.222-.646c0-.354-.086-.643-.259-.868-.172-.227-.396-.419-.671-.579-.275-.16-.573-.314-.894-.462-.377-.188-.73-.388-1.059-.598-.329-.209-.592-.472-.788-.788-.197-.315-.296-.725-.296-1.226,0-.46.111-.841.333-1.146.222-.304.537-.533.948-.689.41-.155.895-.233,1.453-.233.312,0,.568.024.77.073.201.05.367.099.499.148.131.049.246.073.345.073.074,0,.147-.019.222-.056.074-.036.123-.116.147-.239h.468l.074,2.586h-.579c-.181-.747-.421-1.269-.72-1.564-.3-.295-.68-.443-1.14-.443-.436,0-.764.078-.985.234s-.332.398-.332.727c0,.304.086.552.258.745.173.193.402.363.69.511.287.148.595.3.924.456.295.132.58.277.855.438s.523.347.745.56c.222.214.398.467.529.758.132.292.197.63.197,1.017,0,.509-.129.938-.388,1.286-.259.35-.62.614-1.084.795s-1.004.271-1.619.271c-.395,0-.698-.03-.912-.092-.213-.062-.375-.123-.486-.185-.11-.062-.211-.093-.302-.093-.09,0-.166.035-.228.104-.062.07-.093.162-.093.277Z" fill="#21145f"/>
  <path d="M59.189,19.737h-7.058v-.529c.279,0,.503-.022.672-.068.168-.045.289-.14.363-.283.073-.144.11-.367.11-.671v-4.89c0-.312-.024-.546-.073-.702-.05-.155-.156-.263-.32-.32-.165-.057-.415-.086-.752-.086v-.542h6.922l.074,2.229h-.628c-.058-.369-.138-.661-.24-.874-.104-.214-.27-.364-.499-.45-.23-.086-.575-.129-1.035-.129h-1.625v2.832h1.096c.411,0,.71-.02.899-.062.188-.041.31-.135.363-.283.053-.147.08-.382.08-.702h.579v2.846h-.579c0-.345-.027-.598-.08-.758-.054-.16-.175-.263-.363-.308-.189-.045-.488-.068-.899-.068h-1.096v3.067h1.453c.402,0,.734-.025.997-.074s.475-.136.635-.259.293-.293.4-.511c.106-.218.209-.495.308-.831h.591l-.295,2.426Z" fill="#21145f"/>
  <path d="M68.291,19.823h-1.416l-4.717-6.354h-.443l-.37-.604c-.14-.205-.269-.355-.388-.45-.119-.094-.244-.157-.376-.19-.131-.033-.283-.049-.455-.049v-.53h2.955l4.323,5.801h.062v-3.683c0-.319-.019-.599-.056-.837-.036-.238-.135-.423-.295-.555-.16-.131-.434-.196-.819-.196v-.53h3.104v.53c-.353,0-.607.065-.764.196-.156.132-.252.316-.289.555s-.056.518-.056.837v6.06ZM63.216,19.737h-3.091v-.529c.328,0,.574-.111.738-.333s.275-.511.333-.868.086-.741.086-1.151v-4.273h.813v5.16c0,.41.028.721.086.93s.168.352.332.425c.164.074.398.111.702.111v.529Z" fill="#21145f"/>
  <path d="M75.779,19.737h-4.225v-.529c.361,0,.626-.026.794-.08.169-.054.279-.171.333-.352s.08-.455.08-.825v-5.616h-.555c-.451,0-.79.054-1.016.16-.226.107-.388.288-.486.542-.099.255-.193.604-.283,1.047h-.616l.136-2.438h7.5l.111,2.438h-.616c-.09-.443-.187-.792-.289-1.047-.103-.254-.265-.435-.486-.542-.222-.106-.562-.16-1.022-.16h-.542v5.616c0,.37.026.645.08.825s.164.298.333.352c.168.054.425.08.77.08v.529Z" fill="#21145f"/>
  <path d="M79.831,19.737h-2.809v-.529c.214,0,.388-.033.523-.099s.259-.185.37-.357c.11-.172.228-.419.351-.739l2.673-6.429h1.293l2.66,6.454c.164.394.339.688.523.88.185.193.417.29.696.29v.529h-3.954v-.529c.106,0,.216-.007.326-.019.111-.013.205-.047.283-.104s.117-.148.117-.271c0-.09-.024-.226-.073-.406-.05-.181-.107-.357-.173-.529l-.345-.899-.099-.32-1.157-3.227h-.05l-1.306,3.227-.099.32-.418,1.06c-.033.106-.07.226-.111.356-.041.132-.062.251-.062.357,0,.197.063.322.191.376.127.054.342.08.646.08v.529ZM82.528,17.139h-3.178l.222-.641h2.734l.222.641Z" fill="#21145f"/>
  <path d="M90.176,19.885c-.896,0-1.63-.176-2.205-.529-.574-.353-.999-.838-1.274-1.453-.275-.616-.412-1.322-.412-2.118,0-.944.176-1.734.529-2.371.353-.636.844-1.114,1.472-1.435s1.353-.48,2.174-.48c.435,0,.777.033,1.028.099.25.065.447.134.591.203s.277.104.4.104c.14,0,.234-.045.283-.136.05-.09.086-.18.111-.271h.529v3.029h-.591c-.165-.771-.443-1.358-.838-1.761s-.907-.604-1.539-.604c-.748,0-1.304.281-1.669.844s-.548,1.381-.548,2.457c0,.764.092,1.384.276,1.859.185.477.469.823.85,1.041.382.218.86.326,1.436.326.607,0,1.102-.106,1.483-.32.382-.213.75-.518,1.103-.911l.395.345c-.271.386-.557.737-.856,1.053-.3.316-.665.566-1.096.752-.432.185-.976.276-1.632.276Z" fill="#21145f"/>
  <path d="M98.674,19.737h-4.077v-.529c.361,0,.622-.031.782-.093s.261-.181.302-.357c.041-.176.062-.44.062-.794v-4.52c0-.329-.022-.583-.067-.764s-.147-.311-.308-.389c-.16-.077-.417-.116-.771-.116v-.53h4.126v.53c-.361,0-.624.039-.788.116-.164.078-.265.21-.302.395s-.056.438-.056.758v4.52c0,.345.019.607.056.788s.134.302.29.363c.155.062.406.093.751.093v.529Z" fill="#21145f"/>
  <path d="M103.76,19.91c-.862,0-1.595-.165-2.198-.493s-1.063-.809-1.38-1.44c-.316-.633-.474-1.396-.474-2.291,0-.862.159-1.605.479-2.229s.784-1.106,1.392-1.447c.608-.341,1.335-.511,2.181-.511.862,0,1.595.162,2.198.486s1.063.79,1.379,1.397c.316.608.475,1.339.475,2.192,0,.896-.158,1.667-.475,2.315-.315.649-.775,1.147-1.379,1.497-.604.349-1.336.523-2.198.523ZM103.772,19.27c.715,0,1.246-.294,1.596-.881.349-.587.522-1.513.522-2.777,0-.764-.088-1.404-.265-1.921-.177-.518-.427-.909-.751-1.177-.324-.267-.708-.4-1.151-.4-.648,0-1.16.3-1.533.899-.374.6-.561,1.466-.561,2.599,0,1.158.177,2.057.529,2.697.354.641.891.961,1.613.961ZM103.255,11.141h-.801l1.244-1.638h1.49v.394l-1.934,1.244Z" fill="#21145f"/>
  <path d="M116.827,19.823h-1.416l-4.717-6.354h-.443l-.37-.604c-.14-.205-.269-.355-.388-.45-.119-.094-.244-.157-.376-.19-.131-.033-.283-.049-.455-.049v-.53h2.955l4.323,5.801h.062v-3.683c0-.319-.019-.599-.056-.837-.036-.238-.135-.423-.295-.555-.16-.131-.434-.196-.819-.196v-.53h3.104v.53c-.353,0-.607.065-.764.196-.156.132-.252.316-.289.555s-.056.518-.056.837v6.06ZM111.752,19.737h-3.091v-.529c.328,0,.574-.111.738-.333s.275-.511.333-.868.086-.741.086-1.151v-4.273h.813v5.16c0,.41.028.721.086.93s.168.352.332.425c.164.074.398.111.702.111v.529Z" fill="#21145f"/>
</svg>