<?xml version="1.0" encoding="UTF-8"?>
<svg id="Capa_1" xmlns="http://www.w3.org/2000/svg" version="1.1" viewBox="0 0 95.3 21">
  <!-- Generator: Adobe Illustrator 29.3.1, SVG Export Plug-In . SVG Version: 2.1.0 Build 151)  -->
  <defs>
    <style>
      .st0 {
        fill: #fff;
      }
    </style>
  </defs>
  <path class="st0" d="M17.1,5.7v1.7h2.7v1.6h-2.7v1.8h3.1v1.6h-5.1V4h5.1v1.6h-3.1Z"/>
  <path class="st0" d="M26.6,12.4l-1.7-2.6-1.5,2.6h-2.3l2.7-4.2-2.7-4.1h2.4l1.7,2.5,1.5-2.5h2.3l-2.6,4.2,2.8,4.1h-2.4Z"/>
  <path class="st0" d="M36,4v1.6h-2.2v6.7h-2v-6.7h-2.2v-1.6h6.5Z"/>
  <path class="st0" d="M39,5.7v1.7h2.7v1.6h-2.7v1.8h3.1v1.6h-5.1V4h5.1v1.6h-3.1Z"/>
  <path class="st0" d="M50.9,12.4h-2l-3.4-5.1v5.1h-2V4h2l3.4,5.2v-5.2h2v8.3Z"/>
  <path class="st0" d="M53.8,12.2c-.5-.2-.9-.5-1.2-.9-.3-.4-.4-.9-.5-1.4h2.2c0,.3.1.5.3.7.2.2.4.2.7.2s.5,0,.7-.2c.2-.1.3-.3.3-.6s0-.4-.2-.5-.3-.2-.5-.3c-.2,0-.5-.2-.9-.3-.5-.2-1-.3-1.3-.5-.3-.2-.6-.4-.9-.7-.2-.3-.4-.7-.4-1.3,0-.8.3-1.4.8-1.8s1.3-.7,2.2-.7,1.7.2,2.2.7c.6.4.9,1.1.9,1.8h-2.2c0-.3-.1-.5-.3-.6-.2-.2-.4-.2-.7-.2s-.4,0-.6.2c-.2.1-.2.3-.2.6s.1.5.4.6c.3.2.6.3,1.2.5.5.2,1,.4,1.3.5.3.2.6.4.9.7.2.3.4.7.4,1.2s-.1.9-.4,1.3c-.2.4-.6.7-1.1.9-.5.2-1,.3-1.6.3s-1.2,0-1.6-.3Z"/>
  <path class="st0" d="M61.7,4v8.3h-2V4h2Z"/>
  <path class="st0" d="M65,11.9c-.7-.4-1.2-.9-1.6-1.5-.4-.7-.6-1.4-.6-2.2s.2-1.5.6-2.2c.4-.6.9-1.2,1.6-1.5s1.4-.5,2.2-.5,1.5.2,2.2.5,1.2.9,1.5,1.5c.4.6.6,1.4.6,2.2s-.2,1.6-.6,2.2c-.4.7-.9,1.2-1.5,1.5s-1.4.5-2.2.5-1.5-.2-2.2-.5ZM68.7,9.9c.4-.4.6-1,.6-1.8s-.2-1.3-.6-1.8c-.4-.4-.9-.7-1.6-.7s-1.2.2-1.6.7c-.4.4-.6,1-.6,1.8s.2,1.3.6,1.8c.4.4.9.7,1.6.7s1.2-.2,1.6-.7ZM68.5,2.4l-2.9,1.2v-1.4l2.9-1.4v1.6Z"/>
  <path class="st0" d="M80,12.4h-2l-3.4-5.1v5.1h-2V4h2l3.4,5.2v-5.2h2v8.3Z"/>
  <path class="st0" d="M6.4,20.3H.8v-.4c.3,0,.5,0,.6,0s.2-.1.3-.3c0-.1,0-.3,0-.6v-3.7c0-.2,0-.4,0-.6,0-.1-.1-.2-.2-.3s-.3,0-.6,0v-.4h3.3v.4c-.3,0-.5,0-.6,0s-.2.2-.3.3,0,.3,0,.6v3.9c0,.2,0,.4.2.5.1,0,.3.1.6.1h.6c.3,0,.5,0,.7,0,.2,0,.3-.1.4-.2s.2-.3.3-.5c0-.2.2-.4.2-.7h.5l-.3,2.1Z"/>
  <path class="st0" d="M9.1,20.3h-2.2v-.4c.2,0,.3,0,.4,0,.1,0,.2-.1.3-.3,0-.1.2-.3.3-.6l2.1-5.1h1l2.1,5.1c.1.3.3.5.4.7.1.2.3.2.6.2v.4h-3.1v-.4c0,0,.2,0,.3,0,0,0,.2,0,.2,0,0,0,0-.1,0-.2s0-.2,0-.3,0-.3-.1-.4l-.3-.7v-.3c0,0-1-2.6-1-2.6h0l-1,2.6v.3c0,0-.4.8-.4.8,0,0,0,.2,0,.3,0,.1,0,.2,0,.3,0,.2,0,.3.2.3.1,0,.3,0,.5,0v.4ZM11.2,18.2h-2.5l.2-.5h2.2l.2.5Z"/>
  <path class="st0" d="M20.3,20.3h-3.5v-.4c.3,0,.5,0,.6,0,.1,0,.2-.1.2-.3,0-.1,0-.3,0-.6v-3.9c0-.3,0-.5-.2-.6-.1,0-.4-.1-.7-.1v-.4h3.2c.3,0,.7,0,1,0,.3,0,.6.1.8.3.2.1.4.3.6.5s.2.5.2.9,0,.7-.2,1c-.1.3-.3.5-.6.6-.2.2-.5.3-.8.3s-.6,0-1,0-.2,0-.4,0-.3,0-.4,0v1.5c0,.3,0,.5,0,.6,0,.1.1.2.3.3.2,0,.4,0,.7,0v.4ZM19.7,17c.3,0,.6,0,.8-.1.2,0,.3-.2.4-.4s.1-.5.1-.9-.1-.8-.3-1c-.2-.2-.6-.3-1.1-.3s-.2,0-.2,0c0,0-.2,0-.2,0v2.6c0,0,.1,0,.2,0,0,0,.2,0,.3,0Z"/>
  <path class="st0" d="M26.5,20.3h-3.3v-.4c.2,0,.4,0,.6,0,.1,0,.2-.1.3-.3,0-.1,0-.3,0-.6v-3.9c0-.2,0-.3,0-.5s-.1-.2-.3-.2-.3,0-.6,0v-.4h3.2c.5,0,.9,0,1.3.2s.7.3.9.5c.2.2.4.6.4,1s0,.7-.2.9c-.1.2-.3.4-.6.5-.2.1-.5.2-.8.3h0c.1.1.2.2.3.4.1.1.3.4.5.7s.5.7.8,1.2c.2.2.3.4.5.4.2,0,.4,0,.6,0v.4h-2.2c-.2-.4-.4-.7-.5-1-.1-.3-.3-.5-.4-.6-.1-.2-.2-.3-.3-.5,0-.1-.2-.3-.3-.4,0-.2-.2-.2-.3-.3,0,0-.2,0-.4,0h-.2v1.5c0,.3,0,.5,0,.6,0,.1.1.2.3.3s.3,0,.6,0v.4ZM25.6,16.9h.4c.3,0,.6,0,.8-.1.2,0,.4-.2.5-.4.1-.2.2-.5.2-.8s-.1-.7-.3-.9c-.2-.2-.5-.3-1-.3s-.2,0-.3,0c0,0-.2,0-.3,0v2.6Z"/>
  <path class="st0" d="M36,20.3h-5.6v-.4c.2,0,.4,0,.5,0,.1,0,.2-.1.3-.2,0-.1,0-.3,0-.5v-3.9c0-.2,0-.4,0-.6,0-.1-.1-.2-.3-.3s-.3,0-.6,0v-.4h5.5v1.8c0,0-.4,0-.4,0,0-.3-.1-.5-.2-.7,0-.2-.2-.3-.4-.4-.2,0-.5-.1-.8-.1h-1.3v2.3h.9c.3,0,.6,0,.7,0,.2,0,.2-.1.3-.2,0-.1,0-.3,0-.6h.5v2.3h-.5c0-.3,0-.5,0-.6,0-.1-.1-.2-.3-.2s-.4,0-.7,0h-.9v2.4h1.2c.3,0,.6,0,.8,0s.4-.1.5-.2c.1,0,.2-.2.3-.4,0-.2.2-.4.2-.7h.5l-.2,1.9Z"/>
  <path class="st0" d="M37.3,20.4h-.4v-2.1c0,0,.4,0,.4,0,.1.4.2.7.3,1s.3.4.5.5.4.1.7.1.4,0,.6,0c.2,0,.3-.1.5-.3.1-.1.2-.3.2-.5s0-.5-.2-.7c-.1-.2-.3-.3-.5-.5-.2-.1-.5-.2-.7-.4-.3-.2-.6-.3-.8-.5-.3-.2-.5-.4-.6-.6-.2-.3-.2-.6-.2-1s0-.7.3-.9c.2-.2.4-.4.8-.5s.7-.2,1.2-.2.5,0,.6,0,.3,0,.4.1c.1,0,.2,0,.3,0s.1,0,.2,0,0,0,.1-.2h.4v2.1c0,0-.4,0-.4,0-.1-.6-.3-1-.6-1.2s-.5-.4-.9-.4-.6,0-.8.2c-.2.1-.3.3-.3.6s0,.4.2.6c.1.2.3.3.5.4.2.1.5.2.7.4.2.1.5.2.7.3.2.1.4.3.6.4s.3.4.4.6.2.5.2.8-.1.7-.3,1c-.2.3-.5.5-.9.6-.4.1-.8.2-1.3.2s-.6,0-.7,0-.3,0-.4-.1c0,0-.2,0-.2,0s-.1,0-.2,0c0,0,0,.1,0,.2Z"/>
  <path class="st0" d="M47.6,20.3h-5.6v-.4c.2,0,.4,0,.5,0,.1,0,.2-.1.3-.2,0-.1,0-.3,0-.5v-3.9c0-.2,0-.4,0-.6,0-.1-.1-.2-.3-.3s-.3,0-.6,0v-.4h5.5v1.8c0,0-.4,0-.4,0,0-.3-.1-.5-.2-.7,0-.2-.2-.3-.4-.4-.2,0-.5-.1-.8-.1h-1.3v2.3h.9c.3,0,.6,0,.7,0,.2,0,.2-.1.3-.2,0-.1,0-.3,0-.6h.5v2.3h-.5c0-.3,0-.5,0-.6,0-.1-.1-.2-.3-.2s-.4,0-.7,0h-.9v2.4h1.2c.3,0,.6,0,.8,0s.4-.1.5-.2c.1,0,.2-.2.3-.4,0-.2.2-.4.2-.7h.5l-.2,1.9Z"/>
  <path class="st0" d="M54.9,20.3h-1.1l-3.8-5.1h-.4l-.3-.5c-.1-.2-.2-.3-.3-.4s-.2-.1-.3-.2c-.1,0-.2,0-.4,0v-.4h2.4l3.4,4.6h0v-2.9c0-.3,0-.5,0-.7,0-.2-.1-.3-.2-.4-.1-.1-.3-.2-.7-.2v-.4h2.5v.4c-.3,0-.5,0-.6.2-.1.1-.2.3-.2.4,0,.2,0,.4,0,.7v4.8ZM50.8,20.3h-2.5v-.4c.3,0,.5,0,.6-.3s.2-.4.3-.7c0-.3,0-.6,0-.9v-3.4h.6v4.1c0,.3,0,.6,0,.7s.1.3.3.3c.1,0,.3,0,.6,0v.4Z"/>
  <path class="st0" d="M60.8,20.3h-3.4v-.4c.3,0,.5,0,.6,0,.1,0,.2-.1.3-.3,0-.1,0-.4,0-.7v-4.5h-.4c-.4,0-.6,0-.8.1s-.3.2-.4.4c0,.2-.2.5-.2.8h-.5v-1.9h6.1v1.9c0,0-.4,0-.4,0,0-.4-.1-.6-.2-.8,0-.2-.2-.3-.4-.4s-.4-.1-.8-.1h-.4v4.5c0,.3,0,.5,0,.7,0,.1.1.2.3.3.1,0,.3,0,.6,0v.4Z"/>
  <path class="st0" d="M64.1,20.3h-2.2v-.4c.2,0,.3,0,.4,0,.1,0,.2-.1.3-.3,0-.1.2-.3.3-.6l2.1-5.1h1l2.1,5.1c.1.3.3.5.4.7s.3.2.6.2v.4h-3.1v-.4c0,0,.2,0,.3,0,0,0,.2,0,.2,0,0,0,0-.1,0-.2s0-.2,0-.3,0-.3-.1-.4l-.3-.7v-.3c0,0-1-2.6-1-2.6h0l-1,2.6v.3c0,0-.4.8-.4.8,0,0,0,.2,0,.3,0,.1,0,.2,0,.3,0,.2,0,.3.2.3.1,0,.3,0,.5,0v.4ZM66.2,18.2h-2.5l.2-.5h2.2l.2.5Z"/>
  <path class="st0" d="M72.3,20.4c-.7,0-1.3-.1-1.8-.4-.5-.3-.8-.7-1-1.2-.2-.5-.3-1.1-.3-1.7s.1-1.4.4-1.9.7-.9,1.2-1.1c.5-.3,1.1-.4,1.7-.4s.6,0,.8,0c.2,0,.4.1.5.2s.2,0,.3,0,.2,0,.2-.1c0,0,0-.1,0-.2h.4v2.4h-.5c-.1-.6-.4-1.1-.7-1.4-.3-.3-.7-.5-1.2-.5s-1,.2-1.3.7c-.3.4-.4,1.1-.4,2s0,1.1.2,1.5c.1.4.4.7.7.8.3.2.7.3,1.1.3s.9,0,1.2-.3c.3-.2.6-.4.9-.7l.3.3c-.2.3-.4.6-.7.8-.2.3-.5.5-.9.6-.3.1-.8.2-1.3.2Z"/>
  <path class="st0" d="M79.1,20.3h-3.2v-.4c.3,0,.5,0,.6,0,.1,0,.2-.1.2-.3,0-.1,0-.4,0-.6v-3.6c0-.3,0-.5,0-.6,0-.1-.1-.2-.2-.3-.1,0-.3,0-.6,0v-.4h3.3v.4c-.3,0-.5,0-.6,0s-.2.2-.2.3c0,.1,0,.3,0,.6v3.6c0,.3,0,.5,0,.6,0,.1.1.2.2.3.1,0,.3,0,.6,0v.4Z"/>
  <path class="st0" d="M83.1,20.4c-.7,0-1.3-.1-1.8-.4s-.8-.6-1.1-1.1c-.3-.5-.4-1.1-.4-1.8s.1-1.3.4-1.8.6-.9,1.1-1.2,1.1-.4,1.7-.4,1.3.1,1.8.4c.5.3.8.6,1.1,1.1s.4,1.1.4,1.7-.1,1.3-.4,1.8-.6.9-1.1,1.2c-.5.3-1.1.4-1.8.4ZM83.1,19.9c.6,0,1-.2,1.3-.7.3-.5.4-1.2.4-2.2s0-1.1-.2-1.5c-.1-.4-.3-.7-.6-.9-.3-.2-.6-.3-.9-.3-.5,0-.9.2-1.2.7-.3.5-.4,1.2-.4,2.1s.1,1.6.4,2.1c.3.5.7.8,1.3.8ZM82.7,13.4h-.6l1-1.3h1.2v.3l-1.5,1Z"/>
  <path class="st0" d="M93.5,20.3h-1.1l-3.8-5.1h-.4l-.3-.5c-.1-.2-.2-.3-.3-.4s-.2-.1-.3-.2c-.1,0-.2,0-.4,0v-.4h2.4l3.4,4.6h0v-2.9c0-.3,0-.5,0-.7,0-.2-.1-.3-.2-.4-.1-.1-.3-.2-.7-.2v-.4h2.5v.4c-.3,0-.5,0-.6.2-.1.1-.2.3-.2.4,0,.2,0,.4,0,.7v4.8ZM89.5,20.3h-2.5v-.4c.3,0,.5,0,.6-.3s.2-.4.3-.7c0-.3,0-.6,0-.9v-3.4h.6v4.1c0,.3,0,.6,0,.7s.1.3.3.3c.1,0,.3,0,.6,0v.4Z"/>
</svg>