<?xml version="1.0" encoding="UTF-8"?>
<svg id="Capa_1" xmlns="http://www.w3.org/2000/svg" version="1.1" viewBox="0 0 95.3 21">
  <!-- Generator: Adobe Illustrator 29.3.1, SVG Export Plug-In . SVG Version: 2.1.0 Build 151)  -->
  <defs>
    <style>
      .st0 {
        fill: #fff;
      }

      .st1 {
        fill: #21145f;
      }
    </style>
  </defs>
  <rect class="st1" x="-4.4" y="-4" width="104.2" height="29.1"/>
  <g>
    <path class="st0" d="M6.4,11.5H1v-.3c.2,0,.4,0,.6,0,.1,0,.2-.1.3-.2s0-.3,0-.6v-4.1c0-.3,0-.4,0-.6s-.1-.2-.3-.3c-.1,0-.3,0-.6,0v-.3h5.3v1.7c0,0-.3,0-.3,0,0-.3-.1-.6-.2-.7,0-.2-.2-.3-.4-.3-.2,0-.5,0-.9,0h-1.4v2.4h1.1c.3,0,.6,0,.7,0,.2,0,.3-.1.3-.3,0-.1,0-.3,0-.6h.4v2.3h-.4c0-.3,0-.5,0-.6,0-.1-.2-.2-.3-.3-.2,0-.4,0-.7,0h-1.1v2.6h1.2c.4,0,.7,0,.9,0,.2,0,.4-.1.5-.2.1,0,.2-.2.3-.4s.2-.4.3-.7h.4l-.3,1.9Z"/>
    <path class="st0" d="M9.2,11.5h-2.3v-.3c.2,0,.3,0,.4,0,.1,0,.2-.1.3-.2s.2-.3.4-.4l1.8-2.3.4.5h-.2l-1.1,1.6c0,0-.1.2-.2.3,0,.1-.1.2-.1.3s0,.2.1.2c0,0,.3,0,.5,0v.3ZM13.6,11.5h-3v-.3h0c.2,0,.3,0,.4,0s.1-.1.1-.2,0-.2,0-.3-.1-.3-.3-.5l-.6-.9-.3-.6-.2-.2-1.5-2.3c-.2-.2-.3-.4-.4-.5,0-.1-.2-.2-.3-.2s-.3,0-.5,0v-.3h2.9v.3h-.1c-.2,0-.3,0-.4,0s-.1.1-.1.2,0,.2,0,.3c0,.1.1.2.2.4s.2.3.2.4l.6,1,.2.2,1.9,2.7c.2.2.3.4.5.5.1,0,.3.1.6.1v.3ZM12.1,6.3l-1.4,1.8-.3-.5h.1l1-1.4c0-.1.1-.2.2-.3,0,0,0-.2,0-.3s0-.1-.1-.2c0,0-.2,0-.5,0v-.3h2.3v.3c-.2,0-.4,0-.5,0-.1,0-.3.1-.4.3-.1.1-.3.3-.5.5Z"/>
    <path class="st0" d="M18.2,11.5h-3v-.3c.3,0,.5,0,.6,0,.1,0,.2-.1.3-.3s0-.4,0-.7v-4.7h-.6c-.4,0-.6,0-.8.1-.2,0-.3.2-.4.4,0,.2-.2.5-.2.8h-.4v-1.8h5.8v1.8c0,0-.3,0-.3,0,0-.4-.1-.6-.2-.8,0-.2-.2-.3-.4-.4s-.5-.1-.8-.1h-.6v4.7c0,.3,0,.5,0,.7s.1.2.3.3.3,0,.6,0v.3Z"/>
    <path class="st0" d="M25.5,11.5h-5.4v-.3c.2,0,.4,0,.6,0,.1,0,.2-.1.3-.2s0-.3,0-.6v-4.1c0-.3,0-.4,0-.6s-.1-.2-.3-.3c-.1,0-.3,0-.6,0v-.3h5.3v1.7c0,0-.3,0-.3,0,0-.3-.1-.6-.2-.7,0-.2-.2-.3-.4-.3-.2,0-.5,0-.9,0h-1.4v2.4h1.1c.3,0,.6,0,.7,0,.2,0,.3-.1.3-.3,0-.1,0-.3,0-.6h.4v2.3h-.4c0-.3,0-.5,0-.6,0-.1-.2-.2-.3-.3-.2,0-.4,0-.7,0h-1.1v2.6h1.2c.4,0,.7,0,.9,0,.2,0,.4-.1.5-.2.1,0,.2-.2.3-.4s.2-.4.3-.7h.4l-.3,1.9Z"/>
    <path class="st0" d="M32.4,11.6h-.6l-4-5.2h-.3l-.2-.4c-.1-.2-.2-.3-.3-.4s-.2-.1-.3-.2-.2,0-.4,0v-.3h1.9l3.6,4.7h0v-3.1c0-.3,0-.5,0-.7,0-.2-.1-.3-.3-.4s-.3-.1-.6-.1v-.3h2.4v.3c-.3,0-.5,0-.6.1s-.2.2-.3.4c0,.2,0,.4,0,.7v4.9ZM28.7,11.5h-2.4v-.3c.3,0,.5,0,.6-.1s.2-.2.3-.5,0-.5,0-.8v-4.1h.5v4.3c0,.3,0,.6,0,.7,0,.2.1.3.3.3.1,0,.3,0,.6,0v.3Z"/>
    <path class="st0" d="M34.3,11.7h-.3v-2.1c0,0,.3,0,.3,0,.1.4.2.8.4,1,.2.2.3.4.6.5.2,0,.5.1.8.1s.4,0,.6,0c.2,0,.3-.2.4-.3s.2-.3.2-.6,0-.5-.2-.7c-.2-.2-.3-.4-.6-.5-.2-.1-.5-.3-.8-.4-.3-.2-.5-.3-.8-.5-.3-.2-.5-.4-.6-.6-.2-.2-.2-.5-.2-.9s0-.7.3-.9.4-.4.7-.5c.3-.1.6-.2,1-.2s.5,0,.7,0c.2,0,.3,0,.4.1,0,0,.2,0,.3,0s.1,0,.2,0,0-.1.1-.2h.3v2c0,0-.3,0-.3,0-.1-.6-.3-1-.6-1.2-.2-.3-.6-.4-1-.4-.3,0-.6,0-.8.2s-.3.4-.3.7,0,.5.2.6.3.3.5.5.5.3.7.4c.2.1.4.2.7.4.2.1.4.3.6.4.2.2.3.4.4.6.1.2.2.5.2.8s0,.7-.3,1-.4.5-.8.6-.7.2-1.1.2-.6,0-.8,0c-.2,0-.4,0-.5-.1-.1,0-.2,0-.3,0s-.1,0-.2,0c0,0,0,.1,0,.2Z"/>
    <path class="st0" d="M41.9,11.5h-3v-.3c.3,0,.5,0,.6,0,.1,0,.2-.1.3-.3,0-.1,0-.4,0-.6v-3.8c0-.3,0-.5,0-.6,0-.1-.1-.3-.2-.3-.1,0-.4,0-.7,0v-.3h3v.3c-.3,0-.5,0-.7,0-.1,0-.2.2-.2.3,0,.1,0,.4,0,.6v3.8c0,.3,0,.5,0,.6,0,.1.1.2.3.3.1,0,.3,0,.6,0v.3Z"/>
    <path class="st0" d="M46,11.7c-.7,0-1.2-.1-1.7-.4-.5-.3-.8-.7-1.1-1.2s-.4-1.1-.4-1.8.1-1.3.4-1.8.6-.9,1.1-1.2,1-.4,1.7-.4,1.2.1,1.7.4.8.6,1.1,1.1c.3.5.4,1.1.4,1.7s-.1,1.3-.4,1.8-.6.9-1.1,1.2c-.5.3-1,.4-1.7.4ZM46,11.2c.7,0,1.2-.2,1.5-.7.3-.5.5-1.2.5-2.2s0-1.1-.3-1.5c-.2-.4-.4-.8-.7-1-.3-.2-.7-.3-1.1-.3-.6,0-1.1.3-1.4.8-.3.5-.5,1.2-.5,2.1s.2,1.7.5,2.2c.3.5.8.8,1.5.8ZM45.5,4.6h-.5l1-1.3h1.1v.2l-1.6,1Z"/>
    <path class="st0" d="M56,11.6h-.6l-4-5.2h-.3l-.2-.4c-.1-.2-.2-.3-.3-.4s-.2-.1-.3-.2c-.1,0-.2,0-.4,0v-.3h1.9l3.6,4.7h0v-3.1c0-.3,0-.5,0-.7,0-.2-.1-.3-.3-.4s-.3-.1-.6-.1v-.3h2.4v.3c-.3,0-.5,0-.6.1-.1,0-.2.2-.3.4,0,.2,0,.4,0,.7v4.9ZM52.2,11.5h-2.4v-.3c.3,0,.5,0,.6-.1s.2-.2.3-.5c0-.2,0-.5,0-.8v-4.1h.5v4.3c0,.3,0,.6,0,.7,0,.2.1.3.3.3.1,0,.3,0,.6,0v.3Z"/>
    <path class="st0" d="M6.6,19H1v-.4c.3,0,.5,0,.6,0,.1,0,.2-.1.3-.3,0-.1,0-.3,0-.6v-3.8c0-.2,0-.4,0-.6,0-.1-.1-.2-.3-.3-.1,0-.3,0-.6,0v-.4h3.4v.4c-.3,0-.5,0-.6,0-.1,0-.2.2-.3.3,0,.1,0,.3,0,.6v3.9c0,.2,0,.4.2.5.1,0,.3.1.6.1h.6c.3,0,.5,0,.7,0,.2,0,.3-.1.4-.2.1-.1.2-.3.3-.5,0-.2.2-.4.2-.7h.5l-.3,2.1Z"/>
    <path class="st0" d="M9.3,19h-2.3v-.4c.2,0,.3,0,.4,0,.1,0,.2-.1.3-.3s.2-.3.3-.6l2.1-5.2h1l2.1,5.2c.1.3.3.6.4.7.1.2.3.2.6.2v.4h-3.2v-.4c0,0,.2,0,.3,0,0,0,.2,0,.2,0,0,0,0-.1,0-.2s0-.2,0-.3c0-.1,0-.3-.1-.4l-.3-.7v-.3c0,0-1-2.6-1-2.6h0l-1,2.6v.3c0,0-.4.9-.4.9,0,0,0,.2,0,.3s0,.2,0,.3c0,.2,0,.3.2.3.1,0,.3,0,.5,0v.4ZM11.5,16.9h-2.6l.2-.5h2.2l.2.5Z"/>
    <path class="st0" d="M20.6,19h-3.5v-.4c.3,0,.5,0,.6,0,.1,0,.2-.1.2-.3s0-.3,0-.6v-3.9c0-.3,0-.5-.2-.6-.1,0-.4-.1-.7-.1v-.4h3.2c.3,0,.7,0,1,0,.3,0,.6.1.8.3.2.1.4.3.6.5.1.2.2.5.2.9s0,.7-.2,1c-.1.3-.3.5-.6.6s-.5.3-.9.3c-.3,0-.7,0-1,0s-.2,0-.4,0-.3,0-.4,0v1.5c0,.3,0,.5,0,.6s.1.2.3.3.4,0,.7,0v.4ZM20,15.7c.3,0,.6,0,.8-.1.2,0,.4-.2.5-.4s.1-.5.1-.9-.1-.8-.3-1c-.2-.2-.6-.3-1.1-.3s-.2,0-.2,0c0,0-.2,0-.3,0v2.7c0,0,.1,0,.2,0,0,0,.2,0,.3,0Z"/>
    <path class="st0" d="M26.9,19h-3.4v-.4c.3,0,.4,0,.6,0,.1,0,.2-.1.3-.3,0-.1,0-.3,0-.6v-4c0-.2,0-.4,0-.5s-.1-.2-.3-.2c-.1,0-.3,0-.6,0v-.4h3.2c.5,0,.9,0,1.3.2.4.1.7.3,1,.5s.4.6.4,1,0,.7-.2.9c-.1.2-.3.4-.6.5s-.5.2-.8.3h0c.1.1.2.2.3.4.1.1.3.4.5.7.2.3.5.7.8,1.2.2.2.3.4.5.4.2,0,.4,0,.6,0v.4h-2.2c-.2-.4-.4-.7-.6-1-.1-.3-.3-.5-.4-.6s-.2-.3-.3-.5c0-.1-.2-.3-.3-.4,0-.2-.2-.2-.3-.3,0,0-.2,0-.4,0h-.2v1.5c0,.3,0,.5,0,.6,0,.1.1.2.3.3.1,0,.3,0,.6,0v.4ZM25.9,15.6h.4c.3,0,.6,0,.8-.1.2,0,.4-.2.5-.4s.2-.5.2-.8-.1-.7-.3-.9c-.2-.2-.5-.3-1-.3s-.2,0-.3,0c0,0-.2,0-.3,0v2.6Z"/>
    <path class="st0" d="M36.4,19h-5.7v-.4c.2,0,.4,0,.5,0s.2-.1.3-.2,0-.3,0-.5v-3.9c0-.2,0-.4,0-.6,0-.1-.1-.2-.3-.3s-.3,0-.6,0v-.4h5.6v1.8c0,0-.4,0-.4,0,0-.3-.1-.5-.2-.7,0-.2-.2-.3-.4-.4-.2,0-.5-.1-.8-.1h-1.3v2.3h.9c.3,0,.6,0,.7,0,.2,0,.2-.1.3-.2s0-.3,0-.6h.5v2.3h-.5c0-.3,0-.5,0-.6,0-.1-.1-.2-.3-.2-.2,0-.4,0-.7,0h-.9v2.5h1.2c.3,0,.6,0,.8,0,.2,0,.4-.1.5-.2.1,0,.2-.2.3-.4,0-.2.2-.4.2-.7h.5l-.2,1.9Z"/>
    <path class="st0" d="M37.7,19.1h-.4v-2.1c0,0,.4,0,.4,0,.1.4.2.7.4,1,.1.2.3.4.5.5s.4.1.7.1.4,0,.6,0c.2,0,.3-.1.5-.3.1-.1.2-.3.2-.5s0-.5-.2-.7-.3-.3-.5-.5c-.2-.1-.5-.3-.7-.4-.3-.2-.6-.3-.9-.5-.3-.2-.5-.4-.6-.6s-.2-.6-.2-1,0-.7.3-.9c.2-.2.4-.4.8-.6.3-.1.7-.2,1.2-.2s.5,0,.6,0c.2,0,.3,0,.4.1.1,0,.2,0,.3,0s.1,0,.2,0c0,0,0,0,.1-.2h.4v2.1c0,0-.4,0-.4,0-.1-.6-.3-1-.6-1.3-.2-.2-.5-.4-.9-.4s-.6,0-.8.2c-.2.1-.3.3-.3.6s0,.4.2.6c.1.2.3.3.6.4.2.1.5.2.7.4.2.1.5.2.7.4s.4.3.6.5c.2.2.3.4.4.6.1.2.2.5.2.8s-.1.8-.3,1c-.2.3-.5.5-.9.6-.4.1-.8.2-1.3.2s-.6,0-.7,0c-.2,0-.3,0-.4-.1,0,0-.2,0-.2,0s-.1,0-.2,0c0,0,0,.1,0,.2Z"/>
    <path class="st0" d="M48.2,19h-5.7v-.4c.2,0,.4,0,.5,0,.1,0,.2-.1.3-.2,0-.1,0-.3,0-.5v-3.9c0-.2,0-.4,0-.6,0-.1-.1-.2-.3-.3s-.3,0-.6,0v-.4h5.6v1.8c0,0-.4,0-.4,0,0-.3-.1-.5-.2-.7,0-.2-.2-.3-.4-.4-.2,0-.5-.1-.8-.1h-1.3v2.3h.9c.3,0,.6,0,.7,0s.2-.1.3-.2,0-.3,0-.6h.5v2.3h-.5c0-.3,0-.5,0-.6,0-.1-.1-.2-.3-.2s-.4,0-.7,0h-.9v2.5h1.2c.3,0,.6,0,.8,0,.2,0,.4-.1.5-.2.1,0,.2-.2.3-.4,0-.2.2-.4.2-.7h.5l-.2,1.9Z"/>
    <path class="st0" d="M55.5,19h-1.1l-3.8-5.1h-.4l-.3-.5c-.1-.2-.2-.3-.3-.4,0,0-.2-.1-.3-.2s-.2,0-.4,0v-.4h2.4l3.5,4.7h0v-3c0-.3,0-.5,0-.7,0-.2-.1-.3-.2-.4-.1-.1-.3-.2-.7-.2v-.4h2.5v.4c-.3,0-.5,0-.6.2s-.2.3-.2.4c0,.2,0,.4,0,.7v4.9ZM51.4,19h-2.5v-.4c.3,0,.5,0,.6-.3s.2-.4.3-.7,0-.6,0-.9v-3.4h.7v4.1c0,.3,0,.6,0,.7,0,.2.1.3.3.3.1,0,.3,0,.6,0v.4Z"/>
    <path class="st0" d="M61.5,19h-3.4v-.4c.3,0,.5,0,.6,0,.1,0,.2-.1.3-.3,0-.1,0-.4,0-.7v-4.5h-.4c-.4,0-.6,0-.8.1s-.3.2-.4.4c0,.2-.2.5-.2.8h-.5v-2h6.1v2c0,0-.4,0-.4,0,0-.4-.2-.6-.2-.8,0-.2-.2-.3-.4-.4-.2,0-.5-.1-.8-.1h-.4v4.5c0,.3,0,.5,0,.7,0,.1.1.2.3.3.1,0,.3,0,.6,0v.4Z"/>
    <path class="st0" d="M64.7,19h-2.3v-.4c.2,0,.3,0,.4,0,.1,0,.2-.1.3-.3,0-.1.2-.3.3-.6l2.1-5.2h1l2.1,5.2c.1.3.3.6.4.7.1.2.3.2.6.2v.4h-3.2v-.4c0,0,.2,0,.3,0s.2,0,.2,0c0,0,0-.1,0-.2s0-.2,0-.3c0-.1,0-.3-.1-.4l-.3-.7v-.3c0,0-1-2.6-1-2.6h0l-1,2.6v.3c0,0-.4.9-.4.9,0,0,0,.2,0,.3s0,.2,0,.3c0,.2,0,.3.2.3.1,0,.3,0,.5,0v.4ZM66.9,16.9h-2.6l.2-.5h2.2l.2.5Z"/>
    <path class="st0" d="M73,19.1c-.7,0-1.3-.1-1.8-.4-.5-.3-.8-.7-1-1.2s-.3-1.1-.3-1.7.1-1.4.4-1.9c.3-.5.7-.9,1.2-1.2.5-.3,1.1-.4,1.7-.4s.6,0,.8,0,.4.1.5.2.2,0,.3,0,.2,0,.2-.1c0,0,0-.1,0-.2h.4v2.4h-.5c-.1-.6-.4-1.1-.7-1.4s-.7-.5-1.2-.5-1,.2-1.3.7c-.3.5-.4,1.1-.4,2s0,1.1.2,1.5c.1.4.4.7.7.8s.7.3,1.2.3.9,0,1.2-.3c.3-.2.6-.4.9-.7l.3.3c-.2.3-.4.6-.7.8-.2.3-.5.5-.9.6-.3.1-.8.2-1.3.2Z"/>
    <path class="st0" d="M79.9,19h-3.3v-.4c.3,0,.5,0,.6,0,.1,0,.2-.1.2-.3,0-.1,0-.4,0-.6v-3.6c0-.3,0-.5,0-.6,0-.1-.1-.2-.2-.3-.1,0-.3,0-.6,0v-.4h3.3v.4c-.3,0-.5,0-.6,0s-.2.2-.2.3,0,.4,0,.6v3.6c0,.3,0,.5,0,.6,0,.1.1.2.2.3.1,0,.3,0,.6,0v.4Z"/>
    <path class="st0" d="M83.9,19.1c-.7,0-1.3-.1-1.8-.4s-.9-.6-1.1-1.2c-.3-.5-.4-1.1-.4-1.8s.1-1.3.4-1.8c.3-.5.6-.9,1.1-1.2s1.1-.4,1.8-.4,1.3.1,1.8.4c.5.3.9.6,1.1,1.1.3.5.4,1.1.4,1.8s-.1,1.3-.4,1.9-.6.9-1.1,1.2c-.5.3-1.1.4-1.8.4ZM84,18.6c.6,0,1-.2,1.3-.7s.4-1.2.4-2.2,0-1.1-.2-1.5c-.1-.4-.3-.7-.6-.9-.3-.2-.6-.3-.9-.3-.5,0-.9.2-1.2.7-.3.5-.4,1.2-.4,2.1s.1,1.7.4,2.2c.3.5.7.8,1.3.8ZM83.5,12.1h-.6l1-1.3h1.2v.3l-1.6,1Z"/>
    <path class="st0" d="M94.4,19h-1.1l-3.8-5.1h-.4l-.3-.5c-.1-.2-.2-.3-.3-.4,0,0-.2-.1-.3-.2s-.2,0-.4,0v-.4h2.4l3.5,4.7h0v-3c0-.3,0-.5,0-.7,0-.2-.1-.3-.2-.4-.1-.1-.3-.2-.7-.2v-.4h2.5v.4c-.3,0-.5,0-.6.2s-.2.3-.2.4c0,.2,0,.4,0,.7v4.9ZM90.4,19h-2.5v-.4c.3,0,.5,0,.6-.3s.2-.4.3-.7,0-.6,0-.9v-3.4h.7v4.1c0,.3,0,.6,0,.7,0,.2.1.3.3.3.1,0,.3,0,.6,0v.4Z"/>
  </g>
</svg>