<?xml version="1.0" encoding="UTF-8"?>
<svg id="Capa_1" xmlns="http://www.w3.org/2000/svg" version="1.1" viewBox="0 0 80 21">
  <!-- Generator: Adobe Illustrator 29.3.1, SVG Export Plug-In . SVG Version: 2.1.0 Build 151)  -->
  <defs>
    <style>
      .st0 {
        fill: #fff;
      }
    </style>
  </defs>
  <path class="st0" d="M3.2,6v2h3.3v1.9h-3.3v2.2h3.7v2H.8V4.1h6.2v2h-3.7Z"/>
  <path class="st0" d="M14.7,14.1l-2-3.1-1.8,3.1h-2.8l3.2-5.1-3.3-4.9h2.9l2,3,1.8-3h2.8l-3.2,5.1,3.3,5h-2.9Z"/>
  <path class="st0" d="M26,4.1v2h-2.7v8.1h-2.5V6h-2.7v-2h7.8Z"/>
  <path class="st0" d="M29.7,6v2h3.3v1.9h-3.3v2.2h3.7v2h-6.2V4.1h6.2v2h-3.7Z"/>
  <path class="st0" d="M44,14.1h-2.5l-4.1-6.2v6.2h-2.5V4.1h2.5l4.1,6.2v-6.2h2.5v10.1Z"/>
  <path class="st0" d="M47.5,13.9c-.6-.2-1-.6-1.4-1.1-.3-.5-.5-1-.6-1.7h2.6c0,.4.2.7.4.9s.5.3.9.3.6,0,.9-.3c.2-.2.3-.4.3-.7s0-.5-.3-.6c-.2-.2-.4-.3-.6-.4-.2-.1-.6-.2-1-.4-.6-.2-1.2-.4-1.6-.6s-.8-.5-1.1-.9c-.3-.4-.4-.9-.4-1.5,0-.9.3-1.7,1-2.2.7-.5,1.6-.8,2.7-.8s2,.3,2.7.8c.7.5,1,1.3,1.1,2.2h-2.7c0-.3-.1-.6-.4-.8-.2-.2-.5-.3-.8-.3s-.5,0-.7.2-.3.4-.3.7.2.6.5.8.8.4,1.4.6c.6.2,1.2.4,1.6.6s.8.5,1.1.9.4.9.4,1.5-.1,1.1-.4,1.6c-.3.5-.7.8-1.3,1.1-.6.3-1.2.4-2,.4s-1.4-.1-2-.4Z"/>
  <path class="st0" d="M57.1,4.1v10.1h-2.5V4.1h2.5Z"/>
  <path class="st0" d="M61,13.6c-.8-.4-1.4-1.1-1.9-1.8-.5-.8-.7-1.7-.7-2.7s.2-1.9.7-2.7c.5-.8,1.1-1.4,1.9-1.8s1.7-.7,2.6-.7,1.8.2,2.6.7c.8.4,1.4,1.1,1.9,1.8.5.8.7,1.7.7,2.7s-.2,1.9-.7,2.7c-.5.8-1.1,1.4-1.9,1.8s-1.6.7-2.6.7-1.8-.2-2.6-.7ZM65.5,11.2c.5-.5.7-1.2.7-2.1s-.2-1.6-.7-2.1c-.5-.5-1.1-.8-1.9-.8s-1.5.3-1.9.8c-.5.5-.7,1.2-.7,2.1s.2,1.6.7,2.1c.5.5,1.1.8,1.9.8s1.4-.3,1.9-.8ZM65.3,2.1l-3.5,1.4v-1.7l3.5-1.7v1.9Z"/>
  <path class="st0" d="M79.1,14.1h-2.5l-4.1-6.2v6.2h-2.5V4.1h2.5l4.1,6.2v-6.2h2.5v10.1Z"/>
  <path class="st0" d="M5.3,20.8H.6v-.4c.2,0,.4,0,.5,0,.1,0,.2-.1.2-.2,0-.1,0-.3,0-.5v-3.1c0-.2,0-.4,0-.5s-.1-.2-.2-.2c-.1,0-.3,0-.5,0v-.4h2.8v.4c-.2,0-.4,0-.5,0-.1,0-.2.1-.2.2,0,.1,0,.3,0,.5v3.3c0,.2,0,.3.1.4s.2,0,.5,0h.5c.2,0,.4,0,.6,0,.2,0,.3-.1.4-.2,0,0,.2-.2.2-.4,0-.2.1-.4.2-.6h.4l-.2,1.7Z"/>
  <path class="st0" d="M7.6,20.8h-1.9v-.4c.1,0,.3,0,.4,0s.2-.1.2-.2c0-.1.2-.3.2-.5l1.8-4.3h.9l1.8,4.3c.1.3.2.5.4.6.1.1.3.2.5.2v.4h-2.7v-.4c0,0,.1,0,.2,0,0,0,.1,0,.2,0,0,0,0,0,0-.2s0-.2,0-.3,0-.2-.1-.4l-.2-.6v-.2c0,0-.8-2.2-.8-2.2h0l-.9,2.2v.2c0,0-.3.7-.3.7,0,0,0,.2,0,.2,0,0,0,.2,0,.2,0,.1,0,.2.1.3,0,0,.2,0,.4,0v.4ZM9.4,19h-2.1v-.4h2v.4Z"/>
  <path class="st0" d="M17,20.8h-2.9v-.4c.2,0,.4,0,.5,0,.1,0,.2-.1.2-.2,0-.1,0-.3,0-.5v-3.3c0-.3,0-.4-.2-.5-.1,0-.3-.1-.6-.1v-.4h2.7c.3,0,.6,0,.8,0,.3,0,.5.1.7.2s.4.3.5.4c.1.2.2.4.2.7s0,.6-.2.8c-.1.2-.3.4-.5.5-.2.1-.4.2-.7.3-.3,0-.5,0-.8,0s-.2,0-.3,0c-.1,0-.2,0-.3,0v1.2c0,.2,0,.4,0,.5,0,.1.1.2.3.2.1,0,.3,0,.6,0v.4ZM16.5,18.1c.3,0,.5,0,.6,0s.3-.2.4-.4c0-.2.1-.4.1-.7s0-.7-.3-.8-.5-.3-.9-.3-.1,0-.2,0c0,0-.1,0-.2,0v2.2c0,0,.1,0,.2,0,0,0,.1,0,.3,0Z"/>
  <path class="st0" d="M22.3,20.8h-2.8v-.4c.2,0,.4,0,.5,0,.1,0,.2-.1.2-.2s0-.3,0-.5v-3.3c0-.2,0-.3,0-.4,0,0-.1-.2-.2-.2-.1,0-.3,0-.5,0v-.4h2.7c.4,0,.7,0,1.1.1.3,0,.6.2.8.4.2.2.3.5.3.8s0,.5-.2.7c-.1.2-.3.3-.5.4s-.4.2-.6.2h0c0,0,.2.2.3.3s.2.3.4.5c.2.2.4.6.7,1,.1.2.3.3.4.3.1,0,.3,0,.5,0v.4h-1.9c-.2-.3-.3-.6-.5-.8s-.2-.4-.3-.5c0-.1-.2-.3-.2-.4,0-.1-.1-.2-.2-.4,0-.1-.1-.2-.2-.2,0,0-.2,0-.3,0h-.2v1.3c0,.2,0,.4,0,.5s.1.2.2.2c.1,0,.3,0,.5,0v.4ZM21.4,18h.3c.3,0,.5,0,.7-.1.2,0,.3-.2.4-.4,0-.2.1-.4.1-.7s0-.6-.3-.8c-.2-.2-.4-.3-.8-.3s-.2,0-.3,0c0,0-.2,0-.2,0v2.2Z"/>
  <path class="st0" d="M30.2,20.8h-4.7v-.4c.2,0,.3,0,.5,0s.2,0,.2-.2c0,0,0-.2,0-.5v-3.3c0-.2,0-.4,0-.5,0-.1-.1-.2-.2-.2-.1,0-.3,0-.5,0v-.4h4.6v1.5s-.4,0-.4,0c0-.2,0-.4-.2-.6,0-.1-.2-.2-.3-.3-.2,0-.4,0-.7,0h-1.1v1.9h.7c.3,0,.5,0,.6,0,.1,0,.2,0,.2-.2,0,0,0-.3,0-.5h.4v1.9h-.4c0-.2,0-.4,0-.5,0-.1-.1-.2-.2-.2-.1,0-.3,0-.6,0h-.7v2.1h1c.3,0,.5,0,.7,0,.2,0,.3,0,.4-.2.1,0,.2-.2.3-.3,0-.1.1-.3.2-.6h.4l-.2,1.6Z"/>
  <path class="st0" d="M31.3,20.9h-.4v-1.8c0,0,.3,0,.3,0,0,.4.2.6.3.8.1.2.2.3.4.4.2,0,.3.1.6.1s.3,0,.5,0,.3-.1.4-.2c0-.1.1-.3.1-.4s0-.4-.2-.6-.3-.3-.5-.4-.4-.2-.6-.3c-.3-.1-.5-.3-.7-.4-.2-.1-.4-.3-.5-.5-.1-.2-.2-.5-.2-.8s0-.6.2-.8c.1-.2.4-.4.6-.5s.6-.2,1-.2.4,0,.5,0c.1,0,.2,0,.3,0,0,0,.2,0,.2,0s0,0,.1,0c0,0,0,0,0-.2h.3v1.7s-.3,0-.3,0c-.1-.5-.3-.9-.5-1-.2-.2-.5-.3-.8-.3s-.5,0-.7.2-.2.3-.2.5,0,.4.2.5c.1.1.3.2.5.3.2,0,.4.2.6.3.2,0,.4.2.6.3.2.1.4.2.5.4.1.1.3.3.4.5s.1.4.1.7,0,.6-.3.9-.4.4-.7.5c-.3.1-.7.2-1.1.2s-.5,0-.6,0-.3,0-.3-.1-.1,0-.2,0-.1,0-.2,0c0,0,0,.1,0,.2Z"/>
  <path class="st0" d="M40,20.8h-4.7v-.4c.2,0,.3,0,.5,0s.2,0,.2-.2c0,0,0-.2,0-.5v-3.3c0-.2,0-.4,0-.5,0-.1-.1-.2-.2-.2-.1,0-.3,0-.5,0v-.4h4.6v1.5s-.4,0-.4,0c0-.2,0-.4-.2-.6,0-.1-.2-.2-.3-.3-.2,0-.4,0-.7,0h-1.1v1.9h.7c.3,0,.5,0,.6,0,.1,0,.2,0,.2-.2,0,0,0-.3,0-.5h.4v1.9h-.4c0-.2,0-.4,0-.5,0-.1-.1-.2-.2-.2-.1,0-.3,0-.6,0h-.7v2.1h1c.3,0,.5,0,.7,0,.2,0,.3,0,.4-.2.1,0,.2-.2.3-.3,0-.1.1-.3.2-.6h.4l-.2,1.6Z"/>
  <path class="st0" d="M46.1,20.8h-1l-3.2-4.3h-.3l-.2-.4c0-.1-.2-.2-.3-.3,0,0-.2-.1-.3-.1,0,0-.2,0-.3,0v-.4h2l2.9,3.9h0v-2.5c0-.2,0-.4,0-.6,0-.2,0-.3-.2-.4s-.3-.1-.5-.1v-.4h2.1v.4c-.2,0-.4,0-.5.1-.1,0-.2.2-.2.4,0,.2,0,.3,0,.6v4.1ZM42.7,20.8h-2.1v-.4c.2,0,.4,0,.5-.2s.2-.3.2-.6c0-.2,0-.5,0-.8v-2.9h.5v3.5c0,.3,0,.5,0,.6,0,.1.1.2.2.3.1,0,.3,0,.5,0v.4Z"/>
  <path class="st0" d="M51.1,20.8h-2.8v-.4c.2,0,.4,0,.5,0,.1,0,.2-.1.2-.2,0-.1,0-.3,0-.6v-3.8h-.4c-.3,0-.5,0-.7.1-.2,0-.3.2-.3.4,0,.2-.1.4-.2.7h-.4v-1.6h5.1v1.6c0,0-.3,0-.3,0,0-.3-.1-.5-.2-.7,0-.2-.2-.3-.3-.4-.1,0-.4-.1-.7-.1h-.4v3.8c0,.2,0,.4,0,.6,0,.1.1.2.2.2.1,0,.3,0,.5,0v.4Z"/>
  <path class="st0" d="M53.9,20.8h-1.9v-.4c.1,0,.3,0,.4,0s.2-.1.2-.2c0-.1.2-.3.2-.5l1.8-4.3h.9l1.8,4.3c.1.3.2.5.4.6.1.1.3.2.5.2v.4h-2.7v-.4c0,0,.1,0,.2,0,0,0,.1,0,.2,0,0,0,0,0,0-.2s0-.2,0-.3c0-.1,0-.2-.1-.4l-.2-.6v-.2c0,0-.8-2.2-.8-2.2h0l-.9,2.2v.2c0,0-.3.7-.3.7,0,0,0,.2,0,.2s0,.2,0,.2c0,.1,0,.2.1.3,0,0,.2,0,.4,0v.4ZM55.7,19h-2.1v-.4h2v.4Z"/>
  <path class="st0" d="M60.8,20.9c-.6,0-1.1-.1-1.5-.4s-.7-.6-.9-1-.3-.9-.3-1.4.1-1.2.4-1.6c.2-.4.6-.7,1-1,.4-.2.9-.3,1.5-.3s.5,0,.7,0,.3,0,.4.1c0,0,.2,0,.3,0s.2,0,.2,0,0-.1,0-.2h.4v2h-.4c-.1-.5-.3-.9-.6-1.2-.3-.3-.6-.4-1-.4s-.9.2-1.1.6c-.2.4-.4.9-.4,1.6s0,.9.2,1.2c.1.3.3.6.6.7.3.1.6.2,1,.2s.7,0,1-.2c.3-.1.5-.3.7-.6l.3.2c-.2.3-.4.5-.6.7s-.4.4-.7.5-.7.2-1.1.2Z"/>
  <path class="st0" d="M66.5,20.8h-2.7v-.4c.2,0,.4,0,.5,0s.2-.1.2-.2,0-.3,0-.5v-3c0-.2,0-.4,0-.5s0-.2-.2-.3c-.1,0-.3,0-.5,0v-.4h2.8v.4c-.2,0-.4,0-.5,0-.1,0-.2.1-.2.3,0,.1,0,.3,0,.5v3c0,.2,0,.4,0,.5,0,.1,0,.2.2.2s.3,0,.5,0v.4Z"/>
  <path class="st0" d="M69.9,20.9c-.6,0-1.1-.1-1.5-.3-.4-.2-.7-.5-.9-1s-.3-.9-.3-1.5.1-1.1.3-1.5c.2-.4.5-.7.9-1,.4-.2.9-.3,1.5-.3s1.1.1,1.5.3c.4.2.7.5.9.9.2.4.3.9.3,1.5s-.1,1.1-.3,1.6c-.2.4-.5.8-.9,1-.4.2-.9.4-1.5.4ZM69.9,20.5c.5,0,.8-.2,1.1-.6.2-.4.4-1,.4-1.9s0-.9-.2-1.3-.3-.6-.5-.8-.5-.3-.8-.3c-.4,0-.8.2-1,.6-.3.4-.4,1-.4,1.7s.1,1.4.4,1.8c.2.4.6.6,1.1.6ZM69.6,15h-.5l.8-1.1h1v.3l-1.3.8Z"/>
  <path class="st0" d="M78.7,20.8h-1l-3.2-4.3h-.3l-.2-.4c0-.1-.2-.2-.3-.3,0,0-.2-.1-.3-.1,0,0-.2,0-.3,0v-.4h2l2.9,3.9h0v-2.5c0-.2,0-.4,0-.6,0-.2,0-.3-.2-.4s-.3-.1-.5-.1v-.4h2.1v.4c-.2,0-.4,0-.5.1-.1,0-.2.2-.2.4,0,.2,0,.3,0,.6v4.1ZM75.3,20.8h-2.1v-.4c.2,0,.4,0,.5-.2.1-.1.2-.3.2-.6,0-.2,0-.5,0-.8v-2.9h.5v3.5c0,.3,0,.5,0,.6,0,.1.1.2.2.3.1,0,.3,0,.5,0v.4Z"/>
</svg>