<?xml version="1.0" encoding="UTF-8"?>
<svg id="Capa_1" xmlns="http://www.w3.org/2000/svg" version="1.1" viewBox="0 0 118.9 21">
  <!-- Generator: Adobe Illustrator 29.3.1, SVG Export Plug-In . SVG Version: 2.1.0 Build 151)  -->
  <defs>
    <style>
      .st0 {
        fill: #fff;
      }
    </style>
  </defs>
  <path class="st0" d="M7.2,10.5H.4v-.4c.3,0,.6,0,.7,0,.2,0,.3-.1.4-.3,0-.2,0-.4,0-.7V4c0-.3,0-.6,0-.7,0-.2-.2-.3-.3-.3-.2,0-.4,0-.8,0v-.4h6.6v2.1c0,0-.4,0-.4,0,0-.4-.1-.7-.3-.9-.1-.2-.3-.4-.6-.4-.3,0-.6-.1-1.1-.1h-1.7v3h1.3c.4,0,.7,0,.9,0,.2,0,.3-.2.4-.3,0-.2,0-.4,0-.7h.5v2.9h-.5c0-.3,0-.6,0-.8,0-.2-.2-.3-.4-.3s-.5,0-.9,0h-1.3v3.3h1.6c.5,0,.8,0,1.1,0s.5-.1.7-.3c.2-.1.3-.3.4-.5.1-.2.2-.5.3-.9h.5l-.3,2.3Z"/>
  <path class="st0" d="M10.7,10.5h-2.8v-.4c.2,0,.4,0,.5,0,.1,0,.3-.1.4-.3.1-.1.3-.3.5-.5l2.2-2.8.4.6h-.2l-1.4,2c0,0-.2.2-.3.4,0,.1-.1.3-.1.4s0,.2.2.3.3,0,.7,0v.4ZM16.1,10.5h-3.7v-.4h.1c.3,0,.4,0,.5,0s.1-.1.1-.3,0-.3,0-.4c0-.1-.2-.3-.3-.6l-.7-1.1-.4-.8-.2-.2-1.9-2.8c-.2-.3-.3-.5-.5-.6s-.3-.2-.4-.3c-.2,0-.4,0-.6,0v-.4h3.7v.4h-.1c-.2,0-.4,0-.5,0,0,0-.1.1-.1.3s0,.2.1.4c0,.1.2.3.3.5.1.2.2.3.3.5l.8,1.3.2.2,2.3,3.4c.2.3.4.5.6.6.2,0,.4.2.7.2v.4ZM14.3,3.9l-1.8,2.3-.4-.6h.2l1.2-1.8c0-.2.2-.3.2-.4,0-.1,0-.2,0-.4s0-.2-.2-.2c-.1,0-.3,0-.6,0v-.4h2.9v.4c-.3,0-.5,0-.6.1s-.3.2-.5.3c-.2.2-.3.4-.6.7Z"/>
  <path class="st0" d="M21.9,10.5h-3.8v-.4c.4,0,.6,0,.8,0,.2,0,.3-.2.3-.3,0-.2,0-.4,0-.8V3h-.7c-.5,0-.8,0-1,.1s-.4.3-.5.5-.2.6-.3,1h-.5v-2.3h7.2v2.3c0,0-.4,0-.4,0,0-.5-.2-.8-.3-1s-.3-.4-.5-.5-.6-.1-1-.1h-.7v5.8c0,.4,0,.6,0,.8,0,.2.2.3.3.3.2,0,.4,0,.8,0v.4Z"/>
  <path class="st0" d="M31,10.5h-6.7v-.4c.3,0,.6,0,.7,0,.2,0,.3-.1.4-.3,0-.2,0-.4,0-.7V4c0-.3,0-.6,0-.7,0-.2-.2-.3-.3-.3-.2,0-.4,0-.8,0v-.4h6.6v2.1c0,0-.4,0-.4,0,0-.4-.1-.7-.3-.9-.1-.2-.3-.4-.6-.4-.3,0-.6-.1-1.1-.1h-1.7v3h1.3c.4,0,.7,0,.9,0,.2,0,.3-.2.4-.3,0-.2,0-.4,0-.7h.5v2.9h-.5c0-.3,0-.6,0-.8,0-.2-.2-.3-.4-.3s-.5,0-.9,0h-1.3v3.3h1.6c.5,0,.8,0,1.1,0s.5-.1.7-.3c.2-.1.3-.3.4-.5.1-.2.2-.5.3-.9h.5l-.3,2.3Z"/>
  <path class="st0" d="M39.6,10.6h-.7l-5-6.5h-.4l-.3-.5c-.1-.2-.3-.4-.4-.5-.1-.1-.2-.2-.4-.2-.1,0-.3,0-.5,0v-.4h2.4l4.5,5.9h0v-3.9c0-.4,0-.7,0-.9,0-.2-.2-.4-.3-.5-.2-.1-.4-.2-.8-.2v-.4h3v.4c-.3,0-.6,0-.7.2s-.3.3-.3.5c0,.2,0,.5,0,.9v6.1ZM34.9,10.5h-3v-.4c.3,0,.6,0,.7-.2s.3-.3.3-.6c0-.3,0-.6,0-1V3.2h.7v5.4c0,.4,0,.7,0,.9s.2.4.3.4c.2,0,.4.1.7.1v.4Z"/>
  <path class="st0" d="M42,10.7h-.4v-2.7c-.1,0,.3,0,.3,0,.1.6.3,1,.5,1.3.2.3.4.5.7.6.3.1.6.2,1,.2s.6,0,.8-.1.4-.2.5-.4c.1-.2.2-.4.2-.7s0-.7-.3-.9c-.2-.2-.4-.4-.7-.6-.3-.2-.6-.4-.9-.5-.3-.2-.7-.4-1-.6-.3-.2-.6-.5-.8-.8-.2-.3-.3-.7-.3-1.1s.1-.8.3-1.1c.2-.3.5-.5.9-.7.4-.2.8-.2,1.3-.2s.6,0,.8,0c.2,0,.4.1.5.2s.2,0,.3,0,.2,0,.2,0,.1-.1.1-.3h.4v2.5c0,0-.4,0-.4,0-.2-.7-.4-1.2-.7-1.5-.3-.3-.7-.5-1.3-.5-.4,0-.8,0-1,.3-.2.2-.3.5-.3.8s0,.6.3.8c.2.2.4.4.7.6.3.2.6.3.9.5.3.1.5.3.8.5.3.2.5.3.8.5.2.2.4.4.5.7.1.3.2.6.2,1s-.1.9-.3,1.2c-.2.3-.5.6-1,.8-.4.2-.9.3-1.4.3s-.8,0-1,0c-.2,0-.4-.1-.6-.2-.1,0-.3,0-.3,0s-.2,0-.2.1c0,0,0,.2-.1.3Z"/>
  <path class="st0" d="M51.4,10.5h-3.7v-.4c.4,0,.6,0,.8,0,.2,0,.3-.2.3-.4,0-.2,0-.4,0-.8v-4.8c0-.3,0-.6,0-.8,0-.2-.1-.3-.3-.4-.2,0-.4-.1-.8-.1v-.4h3.7v.4c-.4,0-.7,0-.8.1-.2,0-.3.2-.3.4,0,.2,0,.4,0,.8v4.8c0,.4,0,.6,0,.8,0,.2.2.3.3.4.2,0,.4,0,.8,0v.4Z"/>
  <path class="st0" d="M56.5,10.7c-.8,0-1.5-.2-2.1-.5-.6-.3-1.1-.8-1.4-1.4-.3-.6-.5-1.4-.5-2.3s.2-1.6.5-2.2.8-1.1,1.4-1.5,1.3-.5,2.1-.5,1.5.2,2.1.5c.6.3,1,.8,1.4,1.4.3.6.5,1.3.5,2.2s-.2,1.6-.5,2.3c-.3.6-.8,1.2-1.4,1.5-.6.4-1.3.5-2.1.5ZM56.5,10.1c.8,0,1.4-.3,1.8-.9s.6-1.5.6-2.8-.1-1.4-.3-1.9c-.2-.5-.5-.9-.9-1.2s-.8-.4-1.3-.4c-.8,0-1.4.3-1.8.9-.4.6-.7,1.5-.7,2.6s.2,2.1.6,2.7c.4.7,1,1,1.9,1ZM55.9,1.9h-.6l1.3-1.6h1.3v.3l-1.9,1.3Z"/>
  <path class="st0" d="M68.9,10.6h-.7l-5-6.5h-.4l-.3-.5c-.1-.2-.3-.4-.4-.5-.1-.1-.2-.2-.4-.2-.1,0-.3,0-.5,0v-.4h2.4l4.5,5.9h0v-3.9c0-.4,0-.7,0-.9,0-.2-.2-.4-.3-.5-.2-.1-.4-.2-.8-.2v-.4h3v.4c-.3,0-.6,0-.7.2s-.3.3-.3.5c0,.2,0,.5,0,.9v6.1ZM64.3,10.5h-3v-.4c.3,0,.6,0,.7-.2s.3-.3.3-.6c0-.3,0-.6,0-1V3.2h.7v5.4c0,.4,0,.7,0,.9s.2.4.3.4c.2,0,.4.1.7.1v.4Z"/>
  <path class="st0" d="M7.4,19.7H.4v-.5c.3,0,.6,0,.8,0,.2,0,.3-.2.3-.3,0-.2,0-.4,0-.7v-4.7c0-.3,0-.6,0-.7,0-.2-.2-.3-.3-.4-.2,0-.4-.1-.8-.1v-.5h4.2v.5c-.4,0-.6,0-.8.1-.2,0-.3.2-.3.4,0,.2,0,.4,0,.7v4.9c0,.3,0,.5.2.6.1,0,.4.1.7.1h.8c.3,0,.6,0,.9,0,.2,0,.4-.2.6-.3.1-.1.3-.3.4-.6s.2-.5.3-.9h.6l-.3,2.6Z"/>
  <path class="st0" d="M10.8,19.7h-2.8v-.5c.2,0,.4,0,.5,0s.3-.2.4-.4c.1-.2.2-.4.4-.7l2.7-6.4h1.3l2.7,6.5c.2.4.3.7.5.9.2.2.4.3.7.3v.5h-4v-.5c.1,0,.2,0,.3,0,.1,0,.2,0,.3-.1s.1-.1.1-.3,0-.2,0-.4c0-.2-.1-.4-.2-.5l-.3-.9v-.3c0,0-1.3-3.2-1.3-3.2h0l-1.3,3.2v.3c0,0-.5,1.1-.5,1.1,0,.1,0,.2-.1.4,0,.1,0,.3,0,.4,0,.2,0,.3.2.4.1,0,.3,0,.6,0v.5ZM13.5,17.1h-3.2l.2-.6h2.7l.2.6Z"/>
  <path class="st0" d="M24.9,19.7h-4.4v-.5c.4,0,.6,0,.8,0s.3-.2.3-.3c0-.2,0-.4,0-.8v-4.9c0-.4,0-.7-.2-.8s-.5-.2-.9-.2v-.5h4c.4,0,.8,0,1.2,0,.4,0,.7.2,1,.3.3.2.5.4.7.7.2.3.3.7.3,1.1s0,.9-.3,1.2c-.2.3-.4.6-.7.8s-.7.3-1.1.4-.8.1-1.2.1-.3,0-.5,0c-.2,0-.3,0-.5,0v1.8c0,.3,0,.6,0,.7,0,.2.2.3.4.3s.5,0,.9,0v.5ZM24.2,15.7c.4,0,.7,0,.9-.1.2,0,.4-.3.6-.5.1-.3.2-.6.2-1.1s-.1-1-.4-1.2-.7-.4-1.3-.4-.2,0-.3,0c0,0-.2,0-.3,0v3.3c0,0,.2,0,.3,0s.2,0,.4,0Z"/>
  <path class="st0" d="M32.7,19.7h-4.2v-.5c.3,0,.6,0,.7,0s.3-.2.3-.3,0-.4,0-.8v-4.9c0-.2,0-.4,0-.6,0-.1-.2-.2-.3-.3s-.4,0-.7,0v-.5h4c.6,0,1.1,0,1.6.2.5.1.9.3,1.2.6.3.3.4.7.4,1.2s0,.8-.3,1.1c-.2.3-.4.5-.7.7s-.6.3-1,.4h0c.1.1.3.3.4.5.1.2.3.5.6.8s.6.9,1,1.5c.2.3.4.4.6.5.2,0,.4.1.7.1v.5h-2.8c-.3-.5-.5-.9-.7-1.2-.2-.3-.3-.6-.5-.8-.1-.2-.2-.4-.3-.6-.1-.2-.2-.4-.3-.6-.1-.2-.2-.3-.3-.4-.1,0-.3,0-.5,0h-.2v1.9c0,.3,0,.6,0,.7,0,.2.2.3.3.3.2,0,.4,0,.8,0v.5ZM31.5,15.6h.5c.4,0,.8,0,1-.2.3-.1.5-.3.6-.5s.2-.6.2-1-.1-.8-.4-1.1c-.3-.3-.7-.4-1.2-.4s-.3,0-.4,0c-.1,0-.2,0-.4,0v3.3Z"/>
  <path class="st0" d="M44.5,19.7h-7.1v-.5c.3,0,.5,0,.7,0,.2,0,.3-.1.4-.3,0-.1.1-.4.1-.7v-4.9c0-.3,0-.5,0-.7,0-.2-.2-.3-.3-.3-.2,0-.4,0-.8,0v-.5h6.9v2.2c0,0-.6,0-.6,0,0-.4-.1-.7-.2-.9-.1-.2-.3-.4-.5-.5-.2,0-.6-.1-1-.1h-1.6v2.8h1.1c.4,0,.7,0,.9,0,.2,0,.3-.1.4-.3,0-.1,0-.4,0-.7h.6v2.8h-.6c0-.3,0-.6,0-.8,0-.2-.2-.3-.4-.3-.2,0-.5,0-.9,0h-1.1v3.1h1.5c.4,0,.7,0,1,0s.5-.1.6-.3.3-.3.4-.5c.1-.2.2-.5.3-.8h.6l-.3,2.4Z"/>
  <path class="st0" d="M46.2,19.9h-.5v-2.7c-.1,0,.5,0,.5,0,.1.5.3.9.4,1.2s.4.5.6.6c.2.1.5.2.8.2s.5,0,.7-.1c.2,0,.4-.2.6-.3s.2-.4.2-.6,0-.6-.3-.9c-.2-.2-.4-.4-.7-.6-.3-.2-.6-.3-.9-.5-.4-.2-.7-.4-1.1-.6-.3-.2-.6-.5-.8-.8-.2-.3-.3-.7-.3-1.2s.1-.8.3-1.1c.2-.3.5-.5.9-.7.4-.2.9-.2,1.5-.2s.6,0,.8,0c.2,0,.4,0,.5.1.1,0,.2,0,.3,0s.1,0,.2,0c0,0,.1-.1.1-.2h.5v2.6c0,0-.5,0-.5,0-.2-.7-.4-1.3-.7-1.6-.3-.3-.7-.4-1.1-.4s-.8,0-1,.2-.3.4-.3.7,0,.6.3.7c.2.2.4.4.7.5.3.1.6.3.9.5.3.1.6.3.9.4s.5.3.7.6c.2.2.4.5.5.8.1.3.2.6.2,1s-.1.9-.4,1.3c-.3.3-.6.6-1.1.8s-1,.3-1.6.3-.7,0-.9,0c-.2,0-.4-.1-.5-.2-.1,0-.2,0-.3,0s-.2,0-.2.1c0,0,0,.2,0,.3Z"/>
  <path class="st0" d="M59.2,19.7h-7.1v-.5c.3,0,.5,0,.7,0,.2,0,.3-.1.4-.3,0-.1.1-.4.1-.7v-4.9c0-.3,0-.5,0-.7,0-.2-.2-.3-.3-.3-.2,0-.4,0-.8,0v-.5h6.9v2.2c0,0-.6,0-.6,0,0-.4-.1-.7-.2-.9-.1-.2-.3-.4-.5-.5-.2,0-.6-.1-1-.1h-1.6v2.8h1.1c.4,0,.7,0,.9,0,.2,0,.3-.1.4-.3,0-.1,0-.4,0-.7h.6v2.8h-.6c0-.3,0-.6,0-.8,0-.2-.2-.3-.4-.3-.2,0-.5,0-.9,0h-1.1v3.1h1.5c.4,0,.7,0,1,0s.5-.1.6-.3.3-.3.4-.5c.1-.2.2-.5.3-.8h.6l-.3,2.4Z"/>
  <path class="st0" d="M68.3,19.8h-1.4l-4.7-6.4h-.4l-.4-.6c-.1-.2-.3-.4-.4-.5-.1,0-.2-.2-.4-.2-.1,0-.3,0-.5,0v-.5h3l4.3,5.8h0v-3.7c0-.3,0-.6,0-.8,0-.2-.1-.4-.3-.6-.2-.1-.4-.2-.8-.2v-.5h3.1v.5c-.4,0-.6,0-.8.2-.2.1-.3.3-.3.6s0,.5,0,.8v6.1ZM63.2,19.7h-3.1v-.5c.3,0,.6-.1.7-.3s.3-.5.3-.9,0-.7,0-1.2v-4.3h.8v5.2c0,.4,0,.7,0,.9s.2.4.3.4c.2,0,.4.1.7.1v.5Z"/>
  <path class="st0" d="M75.8,19.7h-4.2v-.5c.4,0,.6,0,.8,0,.2,0,.3-.2.3-.4s0-.5,0-.8v-5.6h-.6c-.5,0-.8,0-1,.2-.2.1-.4.3-.5.5,0,.3-.2.6-.3,1h-.6v-2.4h7.6v2.4c.1,0-.5,0-.5,0,0-.4-.2-.8-.3-1-.1-.3-.3-.4-.5-.5-.2-.1-.6-.2-1-.2h-.5v5.6c0,.4,0,.6,0,.8s.2.3.3.4c.2,0,.4,0,.8,0v.5Z"/>
  <path class="st0" d="M79.8,19.7h-2.8v-.5c.2,0,.4,0,.5,0s.3-.2.4-.4c.1-.2.2-.4.4-.7l2.7-6.4h1.3l2.7,6.5c.2.4.3.7.5.9.2.2.4.3.7.3v.5h-4v-.5c.1,0,.2,0,.3,0,.1,0,.2,0,.3-.1s.1-.1.1-.3,0-.2,0-.4c0-.2-.1-.4-.2-.5l-.3-.9v-.3c0,0-1.3-3.2-1.3-3.2h0l-1.3,3.2v.3c0,0-.5,1.1-.5,1.1,0,.1,0,.2-.1.4,0,.1,0,.3,0,.4,0,.2,0,.3.2.4.1,0,.3,0,.6,0v.5ZM82.5,17.1h-3.2l.2-.6h2.7l.2.6Z"/>
  <path class="st0" d="M90.2,19.9c-.9,0-1.6-.2-2.2-.5-.6-.4-1-.8-1.3-1.5-.3-.6-.4-1.3-.4-2.1s.2-1.7.5-2.4c.4-.6.8-1.1,1.5-1.4s1.4-.5,2.2-.5.8,0,1,0c.2,0,.4.1.6.2s.3.1.4.1.2,0,.3-.1c0,0,0-.2.1-.3h.5v3h-.6c-.2-.8-.4-1.4-.8-1.8s-.9-.6-1.5-.6-1.3.3-1.7.8-.5,1.4-.5,2.5,0,1.4.3,1.9c.2.5.5.8.8,1,.4.2.9.3,1.4.3s1.1-.1,1.5-.3c.4-.2.8-.5,1.1-.9l.4.3c-.3.4-.6.7-.9,1.1-.3.3-.7.6-1.1.8-.4.2-1,.3-1.6.3Z"/>
  <path class="st0" d="M98.7,19.7h-4.1v-.5c.4,0,.6,0,.8,0s.3-.2.3-.4c0-.2,0-.4,0-.8v-4.5c0-.3,0-.6,0-.8s-.1-.3-.3-.4c-.2,0-.4-.1-.8-.1v-.5h4.1v.5c-.4,0-.6,0-.8.1-.2,0-.3.2-.3.4s0,.4,0,.8v4.5c0,.3,0,.6,0,.8s.1.3.3.4c.2,0,.4,0,.8,0v.5Z"/>
  <path class="st0" d="M103.8,19.9c-.9,0-1.6-.2-2.2-.5s-1.1-.8-1.4-1.4c-.3-.6-.5-1.4-.5-2.3s.2-1.6.5-2.2.8-1.1,1.4-1.4c.6-.3,1.3-.5,2.2-.5s1.6.2,2.2.5,1.1.8,1.4,1.4c.3.6.5,1.3.5,2.2s-.2,1.7-.5,2.3c-.3.6-.8,1.1-1.4,1.5-.6.3-1.3.5-2.2.5ZM103.8,19.3c.7,0,1.2-.3,1.6-.9.3-.6.5-1.5.5-2.8s0-1.4-.3-1.9c-.2-.5-.4-.9-.8-1.2-.3-.3-.7-.4-1.2-.4-.6,0-1.2.3-1.5.9-.4.6-.6,1.5-.6,2.6s.2,2.1.5,2.7c.4.6.9,1,1.6,1ZM103.3,11.1h-.8l1.2-1.6h1.5v.4l-1.9,1.2Z"/>
  <path class="st0" d="M116.8,19.8h-1.4l-4.7-6.4h-.4l-.4-.6c-.1-.2-.3-.4-.4-.5-.1,0-.2-.2-.4-.2-.1,0-.3,0-.5,0v-.5h3l4.3,5.8h0v-3.7c0-.3,0-.6,0-.8,0-.2-.1-.4-.3-.6-.2-.1-.4-.2-.8-.2v-.5h3.1v.5c-.4,0-.6,0-.8.2-.2.1-.3.3-.3.6s0,.5,0,.8v6.1ZM111.8,19.7h-3.1v-.5c.3,0,.6-.1.7-.3s.3-.5.3-.9,0-.7,0-1.2v-4.3h.8v5.2c0,.4,0,.7,0,.9s.2.4.3.4c.2,0,.4.1.7.1v.5Z"/>
</svg>