<?xml version="1.0" encoding="UTF-8"?>
<svg id="Capa_2" data-name="Capa 2" xmlns="http://www.w3.org/2000/svg" viewBox="0 0 747.06 271.95">
  <defs>
    <style>
      .cls-1, .cls-2 {
        fill: #fff;
      }

      .cls-2 {
        stroke: #fff;
        stroke-miterlimit: 10;
      }
    </style>
  </defs>
  <g id="Capa_1-2" data-name="Capa 1">
    <g>
      <path class="cls-1" d="M25.97,247.82c-1.4.15-1.95.26-2.42.66-.7.62-1.06,1.43-1.06,4.33v19.03h-.66l-16.2-20.16v14.25c0,3.78.59,4.41,3.42,4.81v.7H.44v-.7c3.01-.33,3.56-.88,3.56-4.81v-16.16c-1.21-1.51-1.76-1.95-3.56-1.95v-.7h6.24l14.18,17.74v-12.49c0-1.87-.15-2.98-.7-3.6-.62-.7-1.29-.77-2.9-.96v-.7h8.7v.7Z"/>
      <path class="cls-1" d="M53.14,247.82c-3.08.29-3.45,1.18-3.45,4.67v9.37c0,3.56-.33,5.55-1.98,7.42-1.54,1.76-4.04,2.68-7.42,2.68-2.68,0-4.74-.55-6.24-1.69-2.02-1.5-2.97-4.08-2.97-7.97v-11.39c0-2.46-.4-2.86-3.31-3.08v-.7h10.39v.7c-2.94.26-3.34.7-3.34,3.45v11.46c0,2.86.15,4.52,1.62,5.95,1.06,1.03,2.61,1.65,4.7,1.65,2.35,0,4.41-.81,5.58-2.17,1.21-1.47,1.36-2.94,1.36-5.91v-9.66c0-3.78-.48-4.59-3.45-4.77v-.7h8.52v.7Z"/>
      <path class="cls-1" d="M74.74,271.44h-19.8v-.7c2.83-.18,3.2-.66,3.2-3.49v-16.01c0-2.72-.44-3.27-3.2-3.42v-.7h19.47l.15,5.25h-.92c-.55-3.31-1.4-3.86-5.66-3.86h-4.81c-1.03,0-1.29.15-1.29,1.32v8.08h5.55c3.16,0,3.71-.62,4.15-3.53h.84v8.59h-.84c-.44-3.08-.99-3.56-4.15-3.56h-5.55v8.92c0,1.54.99,1.73,3.71,1.73h1.32c5.25,0,6.83-.95,8.48-4.85h1.03l-1.69,6.21Z"/>
      <path class="cls-1" d="M93.98,254.43c-.44-1.62-.84-2.57-1.51-3.45-1.29-1.65-3.12-2.87-5.33-2.87s-3.71,1.47-3.71,3.49c0,2.5,2.72,4.04,6.57,6.28,3.89,2.28,5.69,4.41,5.69,7.2,0,4.11-3.23,6.87-7.49,6.87-1.54,0-2.98-.26-4.33-.84-.7-.29-1.32-.4-1.73-.4-.55,0-1.03.44-1.03,1.21h-.81l-1.07-7.79h.81c1.69,4.44,4.08,6.5,7.57,6.5,2.57,0,4.37-1.69,4.37-4.11,0-1.29-.37-2.13-1.06-2.9-1.29-1.4-3.82-3.01-6.17-4.26-3.31-1.76-4.48-4.04-4.48-6.32,0-4,2.75-6.43,6.39-6.43,1.51,0,2.46.22,3.86.81.66.29,1.25.44,1.62.44.62,0,1.03-.44,1.18-1.25h.77l.81,7.82h-.92Z"/>
      <path class="cls-1" d="M119.07,253.37c-.81-4.04-1.76-4.7-5.66-4.7h-2.17v18.69c0,2.79.51,3.23,3.53,3.38v.7h-10.72v-.7c3.05-.18,3.45-.59,3.45-3.82v-18.25h-2.2c-3.89,0-4.88.66-5.62,4.7h-.88l.26-6.24h20.64l.26,6.24h-.88Z"/>
      <path class="cls-1" d="M139.64,271.44l-8.74-11.31-2.06.07v7.12c0,2.79.44,3.23,3.27,3.42v.7h-10.14v-.7c2.75-.22,3.12-.62,3.12-3.86v-15.68c0-2.72-.29-3.16-3.12-3.38v-.7h9.99c3.49,0,6.1.88,7.68,2.17,1.21.99,1.8,2.79,1.8,4.41,0,3.2-2.06,5.33-6.65,6.02l7.35,9.29c1.06,1.36,1.84,1.58,3.45,1.73v.7h-5.95ZM128.84,258.84c3.53-.07,4.81-.33,6.5-1.25,1.32-.73,2.09-2.35,2.09-4.19,0-3.31-2.17-4.92-6.72-4.92-1.25,0-1.87.26-1.87,1.54v8.81Z"/>
      <path class="cls-1" d="M163.18,271.44v-.7c1.32,0,1.58-.07,2.02-.33.29-.15.51-.55.51-.88,0-.55-.26-1.54-.7-2.57l-1.51-3.45h-9.62l-1.69,4.19c-.18.48-.33,1.1-.33,1.54,0,1.14.81,1.51,2.57,1.51v.7h-7.31v-.7c2.13-.22,2.46-.99,4.63-6.13l7.57-17.92h.73l9.04,20.68c1.03,2.39,1.54,3.16,3.45,3.38v.7h-9.37ZM158.73,251.9l-4.22,10.1h8.48l-4.26-10.1Z"/>
      <path class="cls-1" d="M200.05,254.43c-.44-1.62-.84-2.57-1.51-3.45-1.29-1.65-3.12-2.87-5.33-2.87s-3.71,1.47-3.71,3.49c0,2.5,2.72,4.04,6.57,6.28,3.89,2.28,5.69,4.41,5.69,7.2,0,4.11-3.23,6.87-7.49,6.87-1.54,0-2.98-.26-4.33-.84-.7-.29-1.32-.4-1.73-.4-.55,0-1.03.44-1.03,1.21h-.81l-1.07-7.79h.81c1.69,4.44,4.08,6.5,7.57,6.5,2.57,0,4.37-1.69,4.37-4.11,0-1.29-.37-2.13-1.06-2.9-1.29-1.4-3.82-3.01-6.17-4.26-3.31-1.76-4.48-4.04-4.48-6.32,0-4,2.75-6.43,6.39-6.43,1.51,0,2.46.22,3.86.81.66.29,1.25.44,1.62.44.62,0,1.03-.44,1.18-1.25h.77l.81,7.82h-.92Z"/>
      <path class="cls-1" d="M225.14,271.44h-19.8v-.7c2.83-.18,3.2-.66,3.2-3.49v-16.01c0-2.72-.44-3.27-3.2-3.42v-.7h19.47l.15,5.25h-.92c-.55-3.31-1.4-3.86-5.66-3.86h-4.81c-1.03,0-1.29.15-1.29,1.32v8.08h5.55c3.16,0,3.71-.62,4.15-3.53h.84v8.59h-.84c-.44-3.08-.99-3.56-4.15-3.56h-5.55v8.92c0,1.54.99,1.73,3.71,1.73h1.32c5.25,0,6.83-.95,8.48-4.85h1.03l-1.69,6.21Z"/>
      <path class="cls-1" d="M254.04,247.82c-1.4.15-1.95.26-2.42.66-.7.62-1.06,1.43-1.06,4.33v19.03h-.66l-16.2-20.16v14.25c0,3.78.59,4.41,3.42,4.81v.7h-8.59v-.7c3.01-.33,3.56-.88,3.56-4.81v-16.16c-1.21-1.51-1.76-1.95-3.56-1.95v-.7h6.24l14.18,17.74v-12.49c0-1.87-.15-2.98-.7-3.6-.62-.7-1.29-.77-2.9-.96v-.7h8.7v.7ZM247.1,238.83c-.77,2.79-1.84,3.89-3.86,3.89-.92,0-1.47-.15-2.97-.88l-.84-.4c-.55-.26-1.07-.4-1.51-.4-.84,0-1.47.55-1.87,1.69h-1.06c.55-2.39,1.87-3.71,3.71-3.71.81,0,1.69.22,2.57.66l.88.44c.7.37,1.4.55,1.95.55.84,0,1.32-.48,1.95-1.84h1.06Z"/>
      <path class="cls-1" d="M268.58,271.95c-7.12,0-12.01-5.14-12.01-12.78s4.85-12.56,12.01-12.56,12.01,5.4,12.01,12.67-4.96,12.67-12.01,12.67ZM273.06,249.66c-1.32-1.1-2.79-1.73-4.52-1.73-1.98,0-3.82.81-5.25,2.46-1.58,1.8-2.53,5.36-2.53,8.85,0,4.37,1.07,7.68,3.31,9.73,1.25,1.14,2.86,1.65,4.55,1.65,1.84,0,3.45-.55,4.74-1.76,2.02-1.95,3.05-5.4,3.05-9.81s-1.25-7.64-3.34-9.4Z"/>
      <path class="cls-1" d="M300.87,271.44l-8.74-11.31-2.06.07v7.12c0,2.79.44,3.23,3.27,3.42v.7h-10.14v-.7c2.75-.22,3.12-.62,3.12-3.86v-15.68c0-2.72-.29-3.16-3.12-3.38v-.7h9.99c3.49,0,6.1.88,7.68,2.17,1.21.99,1.8,2.79,1.8,4.41,0,3.2-2.06,5.33-6.65,6.02l7.35,9.29c1.06,1.36,1.84,1.58,3.45,1.73v.7h-5.95ZM290.07,258.84c3.53-.07,4.81-.33,6.5-1.25,1.32-.73,2.09-2.35,2.09-4.19,0-3.31-2.17-4.92-6.72-4.92-1.25,0-1.87.26-1.87,1.54v8.81Z"/>
      <path class="cls-1" d="M324.41,271.44v-.7c1.32,0,1.58-.07,2.02-.33.29-.15.51-.55.51-.88,0-.55-.26-1.54-.7-2.57l-1.51-3.45h-9.62l-1.69,4.19c-.18.48-.33,1.1-.33,1.54,0,1.14.81,1.51,2.57,1.51v.7h-7.31v-.7c2.13-.22,2.46-.99,4.63-6.13l7.57-17.92h.73l9.04,20.68c1.03,2.39,1.54,3.16,3.45,3.38v.7h-9.37ZM319.96,251.9l-4.22,10.1h8.48l-4.26-10.1Z"/>
      <path class="cls-1" d="M355.48,247.13c4.74,0,8.52,1.17,11.02,3.34,2.39,2.06,3.64,4.92,3.64,8.7,0,4.37-1.73,7.82-5,9.92-2.28,1.47-5.55,2.35-9.26,2.35h-10.32v-.7c2.86-.18,3.23-.66,3.23-3.53v-15.98c0-2.9-.44-3.23-3.23-3.42v-.7h9.92ZM352.54,268.35c0,1.29.33,1.73,1.76,1.73,3.78,0,5.8-.44,8.01-1.91,2.57-1.73,3.82-4.63,3.82-8.78,0-3.82-1.18-6.35-3.49-8.37-2.17-1.91-4.48-2.53-8.15-2.53-1.4,0-1.95.33-1.95,1.54v18.33Z"/>
      <path class="cls-1" d="M392.46,271.44h-19.8v-.7c2.83-.18,3.2-.66,3.2-3.49v-16.01c0-2.72-.44-3.27-3.2-3.42v-.7h19.47l.15,5.25h-.92c-.55-3.31-1.4-3.86-5.66-3.86h-4.81c-1.03,0-1.29.15-1.29,1.32v8.08h5.55c3.16,0,3.71-.62,4.15-3.53h.84v8.59h-.84c-.44-3.08-.99-3.56-4.15-3.56h-5.55v8.92c0,1.54.99,1.73,3.71,1.73h1.32c5.25,0,6.83-.95,8.48-4.85h1.03l-1.69,6.21Z"/>
      <path class="cls-1" d="M425.52,271.44h-19.76v-.7c2.72-.15,3.2-.73,3.2-3.53v-15.83c0-2.83-.33-3.34-3.2-3.56v-.7h10.39v.7c-3.01.18-3.45.66-3.45,3.49v17.04c0,1.4.62,1.65,3.31,1.65h2.57c2.98,0,4.96-.66,6.21-2.24.48-.62.96-1.43,1.54-2.72h.96l-1.76,6.39Z"/>
      <path class="cls-1" d="M445.06,271.44v-.7c1.32,0,1.58-.07,2.02-.33.29-.15.51-.55.51-.88,0-.55-.26-1.54-.7-2.57l-1.51-3.45h-9.62l-1.69,4.19c-.18.48-.33,1.1-.33,1.54,0,1.14.81,1.51,2.57,1.51v.7h-7.31v-.7c2.13-.22,2.46-.99,4.63-6.13l7.57-17.92h.73l9.04,20.68c1.03,2.39,1.54,3.16,3.45,3.38v.7h-9.37ZM440.61,251.9l-4.22,10.1h8.48l-4.26-10.1Z"/>
      <path class="cls-1" d="M475.72,247.13c3.67,0,6.32.92,7.97,2.31,1.21,1.03,1.84,2.53,1.84,4.37,0,1.95-.73,3.6-2.09,4.81-2.13,1.91-3.93,2.24-7.86,2.24-.95,0-1.54-.04-2.53-.11v6.57c0,2.79.48,3.27,3.45,3.42v.7h-10.28v-.7c2.86-.22,3.08-.62,3.08-3.78v-15.76c0-2.72-.37-3.16-3.08-3.38v-.7h9.51ZM473.04,259.28c.84.07,1.51.11,2.24.11,4.04,0,6.24-2.09,6.24-5.4,0-4.04-2.2-5.51-7.2-5.51-1.06,0-1.29.33-1.29,1.32v9.48Z"/>
      <path class="cls-1" d="M505.1,271.44l-8.74-11.31-2.06.07v7.12c0,2.79.44,3.23,3.27,3.42v.7h-10.14v-.7c2.75-.22,3.12-.62,3.12-3.86v-15.68c0-2.72-.29-3.16-3.12-3.38v-.7h9.99c3.49,0,6.1.88,7.68,2.17,1.21.99,1.8,2.79,1.8,4.41,0,3.2-2.06,5.33-6.65,6.02l7.35,9.29c1.06,1.36,1.84,1.58,3.45,1.73v.7h-5.95ZM494.31,258.84c3.53-.07,4.81-.33,6.5-1.25,1.32-.73,2.09-2.35,2.09-4.19,0-3.31-2.17-4.92-6.72-4.92-1.25,0-1.87.26-1.87,1.54v8.81Z"/>
      <path class="cls-1" d="M532.28,271.44h-19.8v-.7c2.83-.18,3.2-.66,3.2-3.49v-16.01c0-2.72-.44-3.27-3.2-3.42v-.7h19.47l.15,5.25h-.92c-.55-3.31-1.4-3.86-5.66-3.86h-4.81c-1.03,0-1.29.15-1.29,1.32v8.08h5.55c3.16,0,3.71-.62,4.15-3.53h.84v8.59h-.84c-.44-3.08-.99-3.56-4.15-3.56h-5.55v8.92c0,1.54.99,1.73,3.71,1.73h1.32c5.25,0,6.83-.95,8.48-4.85h1.03l-1.69,6.21Z"/>
      <path class="cls-1" d="M551.53,254.43c-.44-1.62-.84-2.57-1.51-3.45-1.29-1.65-3.12-2.87-5.33-2.87s-3.71,1.47-3.71,3.49c0,2.5,2.72,4.04,6.57,6.28,3.89,2.28,5.69,4.41,5.69,7.2,0,4.11-3.23,6.87-7.49,6.87-1.54,0-2.98-.26-4.33-.84-.7-.29-1.32-.4-1.73-.4-.55,0-1.03.44-1.03,1.21h-.81l-1.07-7.79h.81c1.69,4.44,4.08,6.5,7.57,6.5,2.57,0,4.37-1.69,4.37-4.11,0-1.29-.37-2.13-1.06-2.9-1.29-1.4-3.82-3.01-6.17-4.26-3.31-1.76-4.48-4.04-4.48-6.32,0-4,2.75-6.43,6.39-6.43,1.51,0,2.46.22,3.86.81.66.29,1.25.44,1.62.44.62,0,1.03-.44,1.18-1.25h.77l.81,7.82h-.92Z"/>
      <path class="cls-1" d="M576.61,271.44h-19.8v-.7c2.83-.18,3.2-.66,3.2-3.49v-16.01c0-2.72-.44-3.27-3.2-3.42v-.7h19.47l.15,5.25h-.92c-.55-3.31-1.4-3.86-5.66-3.86h-4.81c-1.03,0-1.29.15-1.29,1.32v8.08h5.55c3.16,0,3.71-.62,4.15-3.53h.84v8.59h-.84c-.44-3.08-.99-3.56-4.15-3.56h-5.55v8.92c0,1.54.99,1.73,3.71,1.73h1.32c5.25,0,6.83-.95,8.48-4.85h1.03l-1.69,6.21Z"/>
      <path class="cls-1" d="M605.52,247.82c-1.4.15-1.95.26-2.42.66-.7.62-1.06,1.43-1.06,4.33v19.03h-.66l-16.2-20.16v14.25c0,3.78.59,4.41,3.42,4.81v.7h-8.59v-.7c3.01-.33,3.56-.88,3.56-4.81v-16.16c-1.21-1.51-1.76-1.95-3.56-1.95v-.7h6.24l14.18,17.74v-12.49c0-1.87-.15-2.98-.7-3.6-.62-.7-1.29-.77-2.9-.96v-.7h8.7v.7Z"/>
      <path class="cls-1" d="M627.7,253.37c-.81-4.04-1.76-4.7-5.66-4.7h-2.17v18.69c0,2.79.51,3.23,3.53,3.38v.7h-10.72v-.7c3.05-.18,3.45-.59,3.45-3.82v-18.25h-2.2c-3.89,0-4.88.66-5.62,4.7h-.88l.26-6.24h20.64l.26,6.24h-.88Z"/>
      <path class="cls-1" d="M644.63,271.44v-.7c1.32,0,1.58-.07,2.02-.33.29-.15.51-.55.51-.88,0-.55-.26-1.54-.7-2.57l-1.51-3.45h-9.62l-1.69,4.19c-.18.48-.33,1.1-.33,1.54,0,1.14.81,1.51,2.57,1.51v.7h-7.31v-.7c2.13-.22,2.46-.99,4.63-6.13l7.57-17.92h.74l9.04,20.68c1.03,2.39,1.54,3.16,3.45,3.38v.7h-9.37ZM640.19,251.9l-4.22,10.1h8.48l-4.26-10.1Z"/>
      <path class="cls-1" d="M677.61,267.29c-2.13,3.05-5.69,4.67-10.03,4.67-3.34,0-6.54-1.18-8.67-3.27-2.24-2.2-3.53-5.55-3.53-9.18s1.21-6.72,3.31-9.07c2.35-2.61,5.51-3.82,8.92-3.82,1.43,0,2.9.15,4.37.55.77.22,1.91.66,2.53.66.7,0,1.32-.44,1.54-1.21h.73l.33,8.34h-.84c-.44-2.02-.99-3.08-1.91-4.08-1.62-1.73-3.53-2.79-5.91-2.79-5.55,0-8.81,4.48-8.81,10.83,0,4.04.92,6.91,2.64,8.78,1.62,1.73,4,2.64,6.54,2.64,3.31,0,5.33-1.1,8.08-3.71l.7.66Z"/>
      <path class="cls-1" d="M680.25,271.44v-.7c3.08-.11,3.56-.55,3.56-3.42v-16.12c0-2.9-.44-3.2-3.56-3.38v-.7h10.91v.7c-3.08.15-3.6.59-3.6,3.38v16.12c0,2.75.59,3.31,3.6,3.42v.7h-10.91Z"/>
      <path class="cls-1" d="M705.82,271.95c-7.12,0-12.01-5.14-12.01-12.78s4.85-12.56,12.01-12.56,12.01,5.4,12.01,12.67-4.96,12.67-12.01,12.67ZM710.3,249.66c-1.32-1.1-2.79-1.73-4.52-1.73-1.98,0-3.82.81-5.25,2.46-1.58,1.8-2.53,5.36-2.53,8.85,0,4.37,1.07,7.68,3.31,9.73,1.25,1.14,2.87,1.65,4.55,1.65,1.84,0,3.45-.55,4.74-1.76,2.02-1.95,3.05-5.4,3.05-9.81s-1.25-7.64-3.34-9.4ZM707.47,238.2c.66-.66.99-.85,1.54-.85.81,0,1.29.44,1.29,1.18,0,.59-.33,1.07-1.1,1.54l-5.66,3.56h-1.47l5.4-5.44Z"/>
      <path class="cls-1" d="M745.77,247.82c-1.4.15-1.95.26-2.42.66-.7.62-1.07,1.43-1.07,4.33v19.03h-.66l-16.2-20.16v14.25c0,3.78.59,4.41,3.42,4.81v.7h-8.59v-.7c3.01-.33,3.56-.88,3.56-4.81v-16.16c-1.21-1.51-1.76-1.95-3.56-1.95v-.7h6.24l14.18,17.74v-12.49c0-1.87-.15-2.98-.7-3.6-.62-.7-1.29-.77-2.9-.96v-.7h8.71v.7Z"/>
    </g>
    <g>
      <path class="cls-1" d="M76.64,73.91v-2.67c8.01-.75,9.93-2.03,9.93-8.65V12.39c0-5.98-2.24-7.48-9.93-8.01V1.71h37.38v2.67c-7.9.32-10.15,2.03-10.15,8.01v50.2c0,6.94,2.03,8.12,10.15,8.65v2.67h-37.38Z"/>
      <path class="cls-1" d="M193.07,4.38c-6.94,1.07-8.33,2.14-8.33,8.87v62.59h-2.99l-47.74-58.21v42.3c0,8.22,1.82,10.36,10.04,11.32v2.67h-24.14v-2.67c7.8-.96,9.4-2.46,9.4-8.97V12.07c-4.49-6.2-6.94-7.69-9.08-7.69V1.71h22.54l37.28,45.93V15.7c0-8.54-1.92-10.58-9.83-11.32V1.71h22.86v2.67Z"/>
      <path class="cls-1" d="M246.15,23.29c-2.14-6.94-3.85-10.15-7.48-13.88-3.85-3.95-8.33-5.98-13.14-5.98-7.37,0-11.75,4.49-11.75,10.58,0,5.23,2.46,7.69,11,12.18,5.23,2.78,10.36,5.23,15.81,8.22,6.84,3.74,11.64,10.68,11.64,18.8,0,13.46-10.68,22.75-26.49,22.75-4.7,0-8.65-.75-13.89-2.56-2.35-.75-3.52-1.07-4.38-1.07-1.71,0-2.56.85-3.2,3.63h-3.1v-26.49h3.1c1.82,7.58,3.31,11.32,6.41,15.27,4.06,5.13,9.19,7.69,15.38,7.69,8.22,0,13.46-4.7,13.46-12.07,0-3.84-2.46-6.84-6.09-9.4-3.63-2.56-8.44-4.7-13.03-6.94-12.07-5.77-18.26-11.64-18.26-22.43C202.14,8.01,211.01.11,225.53.11c4.17,0,7.58.64,12.5,2.46,2.24.75,3.52,1.07,4.49,1.07,1.92,0,2.67-.75,3.42-3.63h3.2v23.29h-2.99Z"/>
      <path class="cls-1" d="M322.31,23.18c-1.82-12.71-7.37-17.62-20.51-18.05v56.29c0,8.12,1.18,9.19,10.47,9.83v2.67h-38.13v-2.67c9.19-.75,10.36-1.92,10.36-9.83V5.13c-13.24.43-18.8,5.34-20.61,18.05h-3.1l.32-21.47h64.09l.21,21.47h-3.1Z"/>
      <path class="cls-1" d="M332.99,73.91v-2.67c8.01-.75,9.93-2.03,9.93-8.65V12.39c0-5.98-2.24-7.48-9.93-8.01V1.71h37.38v2.67c-7.9.32-10.15,2.03-10.15,8.01v50.2c0,6.94,2.03,8.12,10.15,8.65v2.67h-37.38Z"/>
      <path class="cls-1" d="M439.37,23.18c-1.82-12.71-7.37-17.62-20.51-18.05v56.29c0,8.12,1.18,9.19,10.47,9.83v2.67h-38.13v-2.67c9.19-.75,10.36-1.92,10.36-9.83V5.13c-13.24.43-18.8,5.34-20.61,18.05h-3.1l.32-21.47h64.09l.21,21.47h-3.1Z"/>
      <path class="cls-1" d="M522.79,4.38c-6.84,1.07-8.33,2.78-8.33,9.08v33.54c0,10.68-2.88,18.91-8.12,23.07-4.59,3.74-12.07,5.88-19.65,5.88s-14.74-1.82-19.76-5.77c-6.09-4.81-8.54-10.57-8.54-20.94V14.63c0-8.65-1.28-9.51-8.76-10.25V1.71h35.89v2.67c-8.33.64-10.15,2.03-10.15,10.79v33.97c0,14.85,5.23,21.58,15.59,21.58,12.5,0,18.8-7.9,18.8-23.71V14.95c0-7.8-2.46-9.93-10.36-10.57V1.71h23.39v2.67Z"/>
      <path class="cls-1" d="M592,23.18c-1.82-12.71-7.37-17.62-20.51-18.05v56.29c0,8.12,1.18,9.19,10.47,9.83v2.67h-38.13v-2.67c9.19-.75,10.36-1.92,10.36-9.83V5.13c-13.24.43-18.8,5.34-20.61,18.05h-3.1l.32-21.47h64.09l.21,21.47h-3.1Z"/>
      <path class="cls-1" d="M641.02,75.94c-22.11,0-37.7-15.59-37.7-37.7S619.45.11,641.67.11s37.28,15.92,37.28,38.02-15.81,37.81-37.92,37.81ZM640.7,3.63c-11.75,0-18.48,12.6-18.48,35.03s6.84,33.75,19.01,33.75,18.8-11.54,18.8-33.54-6.84-35.25-19.33-35.25Z"/>
    </g>
    <g>
      <path class="cls-1" d="M44.23,117.29c17.84,0,28.73,6.3,28.73,19.33,0,8.54-4.91,15.06-13.78,18.37-4.59,1.71-8.22,2.03-22.32,2.14v20.51c0,7.16.85,8.12,9.29,9.19v2.67H10.58v-2.67c2.03-.21,3.63-.43,4.81-.96,3.52-1.39,4.17-4.38,4.17-9.83v-45.61c0-8.33-1.5-9.83-8.97-10.47v-2.67h33.65ZM36.86,153.39c13.35-.11,17.73-3.74,17.73-15.59s-3.52-16.77-12.39-16.77c-3.52,0-5.34,1.28-5.34,3.74v28.62Z"/>
      <path class="cls-1" d="M108.31,189.49v-2.67l3.42-.32c3.52-.32,4.91-1.17,4.91-3.52s-1.28-6.09-4.91-14.53h-24.03l-1.39,3.63c-1.28,3.31-3.31,7.8-3.31,10.36,0,2.78,2.35,3.95,8.65,4.38v2.67h-21.58v-2.67c4.91-.85,6.52-2.78,10.57-12.82l23.61-58.21h2.99l23.71,55.76c5.45,12.92,7.37,15.27,11.75,15.27v2.67h-34.39ZM99.34,138.33l-10.04,25.96h20.83l-10.79-25.96Z"/>
      <path class="cls-1" d="M202.95,189.49l-22.11-33.43h-2.99v20.93c0,7.8,1.07,8.76,9.4,9.83v2.67h-36.1v-2.67c8.33-.96,9.4-1.71,9.4-10.15v-46.04c0-8.33-1.5-10.15-9.4-10.68v-2.67h32.9c20.83,0,31.62,6.09,31.62,18.37,0,4.81-1.71,9.72-4.81,12.6-2.99,2.67-5.77,4.38-11.96,6.09l21.26,30.12c.96,1.39,2.78,2.35,4.7,2.35v2.67h-21.9ZM177.85,152.64c13.99-.11,19.55-2.88,19.55-15.92,0-11.32-3.95-15.81-13.89-15.81-4.17,0-5.66,1.28-5.66,4.81v26.92Z"/>
      <path class="cls-1" d="M282.2,189.49l-22.11-33.43h-2.99v20.93c0,7.8,1.07,8.76,9.4,9.83v2.67h-36.1v-2.67c8.33-.96,9.4-1.71,9.4-10.15v-46.04c0-8.33-1.5-10.15-9.4-10.68v-2.67h32.9c20.83,0,31.62,6.09,31.62,18.37,0,4.81-1.71,9.72-4.81,12.6-2.99,2.67-5.77,4.38-11.96,6.09l21.26,30.12c.96,1.39,2.78,2.35,4.7,2.35v2.67h-21.9ZM257.1,152.64c13.99-.11,19.55-2.88,19.55-15.92,0-11.32-3.95-15.81-13.89-15.81-4.17,0-5.66,1.28-5.66,4.81v26.92Z"/>
      <path class="cls-1" d="M345.86,191.52c-22.11,0-37.7-15.59-37.7-37.7s16.13-38.13,38.35-38.13,37.28,15.92,37.28,38.02-15.81,37.81-37.92,37.81ZM345.54,119.21c-11.75,0-18.48,12.6-18.48,35.03s6.84,33.75,19.01,33.75,18.8-11.54,18.8-33.54-6.84-35.25-19.33-35.25Z"/>
      <path class="cls-1" d="M468.26,204.55c-6.94,2.67-11.96,3.74-19.12,3.74-9.4,0-18.37-3.42-24.35-9.4-2.46-2.46-3.74-4.49-5.98-9.19-16.34-4.91-25.42-18.91-25.42-35.46,0-23.18,15.92-38.56,37.81-38.56s37.81,15.38,37.81,38.88c0,18.26-10.15,30.44-27.02,35.57,1.92,3.95,2.99,5.55,5.02,7.58,3.63,3.63,8.12,5.55,13.14,5.55,2.14,0,3.95-.21,7.48-1.28l.64,2.56ZM431.09,119.21c-11.96,0-18.8,12.18-18.8,34.5s6.52,34.29,18.91,34.29,18.91-12.39,18.91-34.29-6.84-34.5-19.01-34.5Z"/>
      <path class="cls-1" d="M549.76,119.96c-6.84,1.07-8.33,2.78-8.33,9.08v33.54c0,10.68-2.88,18.91-8.12,23.07-4.59,3.74-12.07,5.87-19.65,5.87s-14.74-1.82-19.76-5.77c-6.09-4.81-8.54-10.57-8.54-20.94v-34.61c0-8.65-1.28-9.51-8.76-10.25v-2.67h35.89v2.67c-8.33.64-10.15,2.03-10.15,10.79v33.97c0,14.85,5.23,21.58,15.59,21.58,12.5,0,18.8-7.9,18.8-23.71v-32.04c0-7.8-2.46-9.93-10.36-10.57v-2.67h23.39v2.67Z"/>
      <path class="cls-1" d="M556.27,189.49v-2.67c8.01-.75,9.93-2.03,9.93-8.65v-50.2c0-5.98-2.24-7.48-9.93-8.01v-2.67h37.38v2.67c-7.9.32-10.15,2.03-10.15,8.01v50.2c0,6.94,2.03,8.12,10.15,8.65v2.67h-37.38Z"/>
      <path class="cls-1" d="M637.02,189.49v-2.67l3.42-.32c3.52-.32,4.91-1.17,4.91-3.52s-1.28-6.09-4.91-14.53h-24.03l-1.39,3.63c-1.28,3.31-3.31,7.8-3.31,10.36,0,2.78,2.35,3.95,8.65,4.38v2.67h-21.58v-2.67c4.91-.85,6.52-2.78,10.57-12.82l23.61-58.21h2.99l23.71,55.76c5.45,12.92,7.37,15.27,11.75,15.27v2.67h-34.39ZM628.05,138.33l-10.04,25.96h20.83l-10.79-25.96Z"/>
      <path class="cls-1" d="M740.73,189.49h-61.63v-2.67c7.8-.96,9.19-2.14,9.19-7.8v-51.06c0-6.09-1.92-7.58-9.19-8.01v-2.67l37.17-.11v2.67c-9.29.43-10.68,1.82-10.68,10.58v49.56c0,4.59,2.14,6.19,9.08,6.19,8.87,0,13.78-1.92,18.16-5.87,3.63-3.31,6.41-8.44,9.29-15.06h3.1l-4.49,24.25Z"/>
    </g>
    <g>
      <path class="cls-1" d="M25.97,247.82c-1.4.15-1.95.26-2.42.66-.7.62-1.06,1.43-1.06,4.33v19.03h-.66l-16.2-20.16v14.25c0,3.78.59,4.41,3.42,4.81v.7H.44v-.7c3.01-.33,3.56-.88,3.56-4.81v-16.16c-1.21-1.51-1.76-1.95-3.56-1.95v-.7h6.24l14.18,17.74v-12.49c0-1.87-.15-2.98-.7-3.6-.62-.7-1.29-.77-2.9-.96v-.7h8.7v.7Z"/>
      <path class="cls-1" d="M53.14,247.82c-3.08.29-3.45,1.18-3.45,4.67v9.37c0,3.56-.33,5.55-1.98,7.42-1.54,1.76-4.04,2.68-7.42,2.68-2.68,0-4.74-.55-6.24-1.69-2.02-1.5-2.97-4.08-2.97-7.97v-11.39c0-2.46-.4-2.86-3.31-3.08v-.7h10.39v.7c-2.94.26-3.34.7-3.34,3.45v11.46c0,2.86.15,4.52,1.62,5.95,1.06,1.03,2.61,1.65,4.7,1.65,2.35,0,4.41-.81,5.58-2.17,1.21-1.47,1.36-2.94,1.36-5.91v-9.66c0-3.78-.48-4.59-3.45-4.77v-.7h8.52v.7Z"/>
      <path class="cls-1" d="M74.74,271.44h-19.8v-.7c2.83-.18,3.2-.66,3.2-3.49v-16.01c0-2.72-.44-3.27-3.2-3.42v-.7h19.47l.15,5.25h-.92c-.55-3.31-1.4-3.86-5.66-3.86h-4.81c-1.03,0-1.29.15-1.29,1.32v8.08h5.55c3.16,0,3.71-.62,4.15-3.53h.84v8.59h-.84c-.44-3.08-.99-3.56-4.15-3.56h-5.55v8.92c0,1.54.99,1.73,3.71,1.73h1.32c5.25,0,6.83-.95,8.48-4.85h1.03l-1.69,6.21Z"/>
      <path class="cls-1" d="M93.98,254.43c-.44-1.62-.84-2.57-1.51-3.45-1.29-1.65-3.12-2.87-5.33-2.87s-3.71,1.47-3.71,3.49c0,2.5,2.72,4.04,6.57,6.28,3.89,2.28,5.69,4.41,5.69,7.2,0,4.11-3.23,6.87-7.49,6.87-1.54,0-2.98-.26-4.33-.84-.7-.29-1.32-.4-1.73-.4-.55,0-1.03.44-1.03,1.21h-.81l-1.07-7.79h.81c1.69,4.44,4.08,6.5,7.57,6.5,2.57,0,4.37-1.69,4.37-4.11,0-1.29-.37-2.13-1.06-2.9-1.29-1.4-3.82-3.01-6.17-4.26-3.31-1.76-4.48-4.04-4.48-6.32,0-4,2.75-6.43,6.39-6.43,1.51,0,2.46.22,3.86.81.66.29,1.25.44,1.62.44.62,0,1.03-.44,1.18-1.25h.77l.81,7.82h-.92Z"/>
      <path class="cls-1" d="M119.07,253.37c-.81-4.04-1.76-4.7-5.66-4.7h-2.17v18.69c0,2.79.51,3.23,3.53,3.38v.7h-10.72v-.7c3.05-.18,3.45-.59,3.45-3.82v-18.25h-2.2c-3.89,0-4.88.66-5.62,4.7h-.88l.26-6.24h20.64l.26,6.24h-.88Z"/>
      <path class="cls-1" d="M139.64,271.44l-8.74-11.31-2.06.07v7.12c0,2.79.44,3.23,3.27,3.42v.7h-10.14v-.7c2.75-.22,3.12-.62,3.12-3.86v-15.68c0-2.72-.29-3.16-3.12-3.38v-.7h9.99c3.49,0,6.1.88,7.68,2.17,1.21.99,1.8,2.79,1.8,4.41,0,3.2-2.06,5.33-6.65,6.02l7.35,9.29c1.06,1.36,1.84,1.58,3.45,1.73v.7h-5.95ZM128.84,258.84c3.53-.07,4.81-.33,6.5-1.25,1.32-.73,2.09-2.35,2.09-4.19,0-3.31-2.17-4.92-6.72-4.92-1.25,0-1.87.26-1.87,1.54v8.81Z"/>
      <path class="cls-1" d="M163.18,271.44v-.7c1.32,0,1.58-.07,2.02-.33.29-.15.51-.55.51-.88,0-.55-.26-1.54-.7-2.57l-1.51-3.45h-9.62l-1.69,4.19c-.18.48-.33,1.1-.33,1.54,0,1.14.81,1.51,2.57,1.51v.7h-7.31v-.7c2.13-.22,2.46-.99,4.63-6.13l7.57-17.92h.73l9.04,20.68c1.03,2.39,1.54,3.16,3.45,3.38v.7h-9.37ZM158.73,251.9l-4.22,10.1h8.48l-4.26-10.1Z"/>
      <path class="cls-1" d="M200.05,254.43c-.44-1.62-.84-2.57-1.51-3.45-1.29-1.65-3.12-2.87-5.33-2.87s-3.71,1.47-3.71,3.49c0,2.5,2.72,4.04,6.57,6.28,3.89,2.28,5.69,4.41,5.69,7.2,0,4.11-3.23,6.87-7.49,6.87-1.54,0-2.98-.26-4.33-.84-.7-.29-1.32-.4-1.73-.4-.55,0-1.03.44-1.03,1.21h-.81l-1.07-7.79h.81c1.69,4.44,4.08,6.5,7.57,6.5,2.57,0,4.37-1.69,4.37-4.11,0-1.29-.37-2.13-1.06-2.9-1.29-1.4-3.82-3.01-6.17-4.26-3.31-1.76-4.48-4.04-4.48-6.32,0-4,2.75-6.43,6.39-6.43,1.51,0,2.46.22,3.86.81.66.29,1.25.44,1.62.44.62,0,1.03-.44,1.18-1.25h.77l.81,7.82h-.92Z"/>
      <path class="cls-1" d="M225.14,271.44h-19.8v-.7c2.83-.18,3.2-.66,3.2-3.49v-16.01c0-2.72-.44-3.27-3.2-3.42v-.7h19.47l.15,5.25h-.92c-.55-3.31-1.4-3.86-5.66-3.86h-4.81c-1.03,0-1.29.15-1.29,1.32v8.08h5.55c3.16,0,3.71-.62,4.15-3.53h.84v8.59h-.84c-.44-3.08-.99-3.56-4.15-3.56h-5.55v8.92c0,1.54.99,1.73,3.71,1.73h1.32c5.25,0,6.83-.95,8.48-4.85h1.03l-1.69,6.21Z"/>
      <path class="cls-1" d="M254.04,247.82c-1.4.15-1.95.26-2.42.66-.7.62-1.06,1.43-1.06,4.33v19.03h-.66l-16.2-20.16v14.25c0,3.78.59,4.41,3.42,4.81v.7h-8.59v-.7c3.01-.33,3.56-.88,3.56-4.81v-16.16c-1.21-1.51-1.76-1.95-3.56-1.95v-.7h6.24l14.18,17.74v-12.49c0-1.87-.15-2.98-.7-3.6-.62-.7-1.29-.77-2.9-.96v-.7h8.7v.7ZM247.1,238.83c-.77,2.79-1.84,3.89-3.86,3.89-.92,0-1.47-.15-2.97-.88l-.84-.4c-.55-.26-1.07-.4-1.51-.4-.84,0-1.47.55-1.87,1.69h-1.06c.55-2.39,1.87-3.71,3.71-3.71.81,0,1.69.22,2.57.66l.88.44c.7.37,1.4.55,1.95.55.84,0,1.32-.48,1.95-1.84h1.06Z"/>
      <path class="cls-1" d="M268.58,271.95c-7.12,0-12.01-5.14-12.01-12.78s4.85-12.56,12.01-12.56,12.01,5.4,12.01,12.67-4.96,12.67-12.01,12.67ZM273.06,249.66c-1.32-1.1-2.79-1.73-4.52-1.73-1.98,0-3.82.81-5.25,2.46-1.58,1.8-2.53,5.36-2.53,8.85,0,4.37,1.07,7.68,3.31,9.73,1.25,1.14,2.86,1.65,4.55,1.65,1.84,0,3.45-.55,4.74-1.76,2.02-1.95,3.05-5.4,3.05-9.81s-1.25-7.64-3.34-9.4Z"/>
      <path class="cls-1" d="M300.87,271.44l-8.74-11.31-2.06.07v7.12c0,2.79.44,3.23,3.27,3.42v.7h-10.14v-.7c2.75-.22,3.12-.62,3.12-3.86v-15.68c0-2.72-.29-3.16-3.12-3.38v-.7h9.99c3.49,0,6.1.88,7.68,2.17,1.21.99,1.8,2.79,1.8,4.41,0,3.2-2.06,5.33-6.65,6.02l7.35,9.29c1.06,1.36,1.84,1.58,3.45,1.73v.7h-5.95ZM290.07,258.84c3.53-.07,4.81-.33,6.5-1.25,1.32-.73,2.09-2.35,2.09-4.19,0-3.31-2.17-4.92-6.72-4.92-1.25,0-1.87.26-1.87,1.54v8.81Z"/>
      <path class="cls-1" d="M324.41,271.44v-.7c1.32,0,1.58-.07,2.02-.33.29-.15.51-.55.51-.88,0-.55-.26-1.54-.7-2.57l-1.51-3.45h-9.62l-1.69,4.19c-.18.48-.33,1.1-.33,1.54,0,1.14.81,1.51,2.57,1.51v.7h-7.31v-.7c2.13-.22,2.46-.99,4.63-6.13l7.57-17.92h.73l9.04,20.68c1.03,2.39,1.54,3.16,3.45,3.38v.7h-9.37ZM319.96,251.9l-4.22,10.1h8.48l-4.26-10.1Z"/>
      <path class="cls-1" d="M355.48,247.13c4.74,0,8.52,1.17,11.02,3.34,2.39,2.06,3.64,4.92,3.64,8.7,0,4.37-1.73,7.82-5,9.92-2.28,1.47-5.55,2.35-9.26,2.35h-10.32v-.7c2.86-.18,3.23-.66,3.23-3.53v-15.98c0-2.9-.44-3.23-3.23-3.42v-.7h9.92ZM352.54,268.35c0,1.29.33,1.73,1.76,1.73,3.78,0,5.8-.44,8.01-1.91,2.57-1.73,3.82-4.63,3.82-8.78,0-3.82-1.18-6.35-3.49-8.37-2.17-1.91-4.48-2.53-8.15-2.53-1.4,0-1.95.33-1.95,1.54v18.33Z"/>
      <path class="cls-1" d="M392.46,271.44h-19.8v-.7c2.83-.18,3.2-.66,3.2-3.49v-16.01c0-2.72-.44-3.27-3.2-3.42v-.7h19.47l.15,5.25h-.92c-.55-3.31-1.4-3.86-5.66-3.86h-4.81c-1.03,0-1.29.15-1.29,1.32v8.08h5.55c3.16,0,3.71-.62,4.15-3.53h.84v8.59h-.84c-.44-3.08-.99-3.56-4.15-3.56h-5.55v8.92c0,1.54.99,1.73,3.71,1.73h1.32c5.25,0,6.83-.95,8.48-4.85h1.03l-1.69,6.21Z"/>
      <path class="cls-1" d="M425.52,271.44h-19.76v-.7c2.72-.15,3.2-.73,3.2-3.53v-15.83c0-2.83-.33-3.34-3.2-3.56v-.7h10.39v.7c-3.01.18-3.45.66-3.45,3.49v17.04c0,1.4.62,1.65,3.31,1.65h2.57c2.98,0,4.96-.66,6.21-2.24.48-.62.96-1.43,1.54-2.72h.96l-1.76,6.39Z"/>
      <path class="cls-1" d="M445.06,271.44v-.7c1.32,0,1.58-.07,2.02-.33.29-.15.51-.55.51-.88,0-.55-.26-1.54-.7-2.57l-1.51-3.45h-9.62l-1.69,4.19c-.18.48-.33,1.1-.33,1.54,0,1.14.81,1.51,2.57,1.51v.7h-7.31v-.7c2.13-.22,2.46-.99,4.63-6.13l7.57-17.92h.73l9.04,20.68c1.03,2.39,1.54,3.16,3.45,3.38v.7h-9.37ZM440.61,251.9l-4.22,10.1h8.48l-4.26-10.1Z"/>
      <path class="cls-1" d="M475.72,247.13c3.67,0,6.32.92,7.97,2.31,1.21,1.03,1.84,2.53,1.84,4.37,0,1.95-.73,3.6-2.09,4.81-2.13,1.91-3.93,2.24-7.86,2.24-.95,0-1.54-.04-2.53-.11v6.57c0,2.79.48,3.27,3.45,3.42v.7h-10.28v-.7c2.86-.22,3.08-.62,3.08-3.78v-15.76c0-2.72-.37-3.16-3.08-3.38v-.7h9.51ZM473.04,259.28c.84.07,1.51.11,2.24.11,4.04,0,6.24-2.09,6.24-5.4,0-4.04-2.2-5.51-7.2-5.51-1.06,0-1.29.33-1.29,1.32v9.48Z"/>
      <path class="cls-1" d="M505.1,271.44l-8.74-11.31-2.06.07v7.12c0,2.79.44,3.23,3.27,3.42v.7h-10.14v-.7c2.75-.22,3.12-.62,3.12-3.86v-15.68c0-2.72-.29-3.16-3.12-3.38v-.7h9.99c3.49,0,6.1.88,7.68,2.17,1.21.99,1.8,2.79,1.8,4.41,0,3.2-2.06,5.33-6.65,6.02l7.35,9.29c1.06,1.36,1.84,1.58,3.45,1.73v.7h-5.95ZM494.31,258.84c3.53-.07,4.81-.33,6.5-1.25,1.32-.73,2.09-2.35,2.09-4.19,0-3.31-2.17-4.92-6.72-4.92-1.25,0-1.87.26-1.87,1.54v8.81Z"/>
      <path class="cls-1" d="M532.28,271.44h-19.8v-.7c2.83-.18,3.2-.66,3.2-3.49v-16.01c0-2.72-.44-3.27-3.2-3.42v-.7h19.47l.15,5.25h-.92c-.55-3.31-1.4-3.86-5.66-3.86h-4.81c-1.03,0-1.29.15-1.29,1.32v8.08h5.55c3.16,0,3.71-.62,4.15-3.53h.84v8.59h-.84c-.44-3.08-.99-3.56-4.15-3.56h-5.55v8.92c0,1.54.99,1.73,3.71,1.73h1.32c5.25,0,6.83-.95,8.48-4.85h1.03l-1.69,6.21Z"/>
      <path class="cls-1" d="M551.53,254.43c-.44-1.62-.84-2.57-1.51-3.45-1.29-1.65-3.12-2.87-5.33-2.87s-3.71,1.47-3.71,3.49c0,2.5,2.72,4.04,6.57,6.28,3.89,2.28,5.69,4.41,5.69,7.2,0,4.11-3.23,6.87-7.49,6.87-1.54,0-2.98-.26-4.33-.84-.7-.29-1.32-.4-1.73-.4-.55,0-1.03.44-1.03,1.21h-.81l-1.07-7.79h.81c1.69,4.44,4.08,6.5,7.57,6.5,2.57,0,4.37-1.69,4.37-4.11,0-1.29-.37-2.13-1.06-2.9-1.29-1.4-3.82-3.01-6.17-4.26-3.31-1.76-4.48-4.04-4.48-6.32,0-4,2.75-6.43,6.39-6.43,1.51,0,2.46.22,3.86.81.66.29,1.25.44,1.62.44.62,0,1.03-.44,1.18-1.25h.77l.81,7.82h-.92Z"/>
      <path class="cls-1" d="M576.61,271.44h-19.8v-.7c2.83-.18,3.2-.66,3.2-3.49v-16.01c0-2.72-.44-3.27-3.2-3.42v-.7h19.47l.15,5.25h-.92c-.55-3.31-1.4-3.86-5.66-3.86h-4.81c-1.03,0-1.29.15-1.29,1.32v8.08h5.55c3.16,0,3.71-.62,4.15-3.53h.84v8.59h-.84c-.44-3.08-.99-3.56-4.15-3.56h-5.55v8.92c0,1.54.99,1.73,3.71,1.73h1.32c5.25,0,6.83-.95,8.48-4.85h1.03l-1.69,6.21Z"/>
      <path class="cls-1" d="M605.52,247.82c-1.4.15-1.95.26-2.42.66-.7.62-1.06,1.43-1.06,4.33v19.03h-.66l-16.2-20.16v14.25c0,3.78.59,4.41,3.42,4.81v.7h-8.59v-.7c3.01-.33,3.56-.88,3.56-4.81v-16.16c-1.21-1.51-1.76-1.95-3.56-1.95v-.7h6.24l14.18,17.74v-12.49c0-1.87-.15-2.98-.7-3.6-.62-.7-1.29-.77-2.9-.96v-.7h8.7v.7Z"/>
      <path class="cls-1" d="M627.7,253.37c-.81-4.04-1.76-4.7-5.66-4.7h-2.17v18.69c0,2.79.51,3.23,3.53,3.38v.7h-10.72v-.7c3.05-.18,3.45-.59,3.45-3.82v-18.25h-2.2c-3.89,0-4.88.66-5.62,4.7h-.88l.26-6.24h20.64l.26,6.24h-.88Z"/>
      <path class="cls-1" d="M644.63,271.44v-.7c1.32,0,1.58-.07,2.02-.33.29-.15.51-.55.51-.88,0-.55-.26-1.54-.7-2.57l-1.51-3.45h-9.62l-1.69,4.19c-.18.48-.33,1.1-.33,1.54,0,1.14.81,1.51,2.57,1.51v.7h-7.31v-.7c2.13-.22,2.46-.99,4.63-6.13l7.57-17.92h.74l9.04,20.68c1.03,2.39,1.54,3.16,3.45,3.38v.7h-9.37ZM640.19,251.9l-4.22,10.1h8.48l-4.26-10.1Z"/>
      <path class="cls-1" d="M677.61,267.29c-2.13,3.05-5.69,4.67-10.03,4.67-3.34,0-6.54-1.18-8.67-3.27-2.24-2.2-3.53-5.55-3.53-9.18s1.21-6.72,3.31-9.07c2.35-2.61,5.51-3.82,8.92-3.82,1.43,0,2.9.15,4.37.55.77.22,1.91.66,2.53.66.7,0,1.32-.44,1.54-1.21h.73l.33,8.34h-.84c-.44-2.02-.99-3.08-1.91-4.08-1.62-1.73-3.53-2.79-5.91-2.79-5.55,0-8.81,4.48-8.81,10.83,0,4.04.92,6.91,2.64,8.78,1.62,1.73,4,2.64,6.54,2.64,3.31,0,5.33-1.1,8.08-3.71l.7.66Z"/>
      <path class="cls-1" d="M680.25,271.44v-.7c3.08-.11,3.56-.55,3.56-3.42v-16.12c0-2.9-.44-3.2-3.56-3.38v-.7h10.91v.7c-3.08.15-3.6.59-3.6,3.38v16.12c0,2.75.59,3.31,3.6,3.42v.7h-10.91Z"/>
      <path class="cls-1" d="M705.82,271.95c-7.12,0-12.01-5.14-12.01-12.78s4.85-12.56,12.01-12.56,12.01,5.4,12.01,12.67-4.96,12.67-12.01,12.67ZM710.3,249.66c-1.32-1.1-2.79-1.73-4.52-1.73-1.98,0-3.82.81-5.25,2.46-1.58,1.8-2.53,5.36-2.53,8.85,0,4.37,1.07,7.68,3.31,9.73,1.25,1.14,2.87,1.65,4.55,1.65,1.84,0,3.45-.55,4.74-1.76,2.02-1.95,3.05-5.4,3.05-9.81s-1.25-7.64-3.34-9.4ZM707.47,238.2c.66-.66.99-.85,1.54-.85.81,0,1.29.44,1.29,1.18,0,.59-.33,1.07-1.1,1.54l-5.66,3.56h-1.47l5.4-5.44Z"/>
      <path class="cls-1" d="M745.77,247.82c-1.4.15-1.95.26-2.42.66-.7.62-1.07,1.43-1.07,4.33v19.03h-.66l-16.2-20.16v14.25c0,3.78.59,4.41,3.42,4.81v.7h-8.59v-.7c3.01-.33,3.56-.88,3.56-4.81v-16.16c-1.21-1.51-1.76-1.95-3.56-1.95v-.7h6.24l14.18,17.74v-12.49c0-1.87-.15-2.98-.7-3.6-.62-.7-1.29-.77-2.9-.96v-.7h8.71v.7Z"/>
    </g>
    <g>
      <path class="cls-1" d="M76.64,73.91v-2.67c8.01-.75,9.93-2.03,9.93-8.65V12.39c0-5.98-2.24-7.48-9.93-8.01V1.71h37.38v2.67c-7.9.32-10.15,2.03-10.15,8.01v50.2c0,6.94,2.03,8.12,10.15,8.65v2.67h-37.38Z"/>
      <path class="cls-1" d="M193.07,4.38c-6.94,1.07-8.33,2.14-8.33,8.87v62.59h-2.99l-47.74-58.21v42.3c0,8.22,1.82,10.36,10.04,11.32v2.67h-24.14v-2.67c7.8-.96,9.4-2.46,9.4-8.97V12.07c-4.49-6.2-6.94-7.69-9.08-7.69V1.71h22.54l37.28,45.93V15.7c0-8.54-1.92-10.58-9.83-11.32V1.71h22.86v2.67Z"/>
      <path class="cls-1" d="M246.15,23.29c-2.14-6.94-3.85-10.15-7.48-13.88-3.85-3.95-8.33-5.98-13.14-5.98-7.37,0-11.75,4.49-11.75,10.58,0,5.23,2.46,7.69,11,12.18,5.23,2.78,10.36,5.23,15.81,8.22,6.84,3.74,11.64,10.68,11.64,18.8,0,13.46-10.68,22.75-26.49,22.75-4.7,0-8.65-.75-13.89-2.56-2.35-.75-3.52-1.07-4.38-1.07-1.71,0-2.56.85-3.2,3.63h-3.1v-26.49h3.1c1.82,7.58,3.31,11.32,6.41,15.27,4.06,5.13,9.19,7.69,15.38,7.69,8.22,0,13.46-4.7,13.46-12.07,0-3.84-2.46-6.84-6.09-9.4-3.63-2.56-8.44-4.7-13.03-6.94-12.07-5.77-18.26-11.64-18.26-22.43C202.14,8.01,211.01.11,225.53.11c4.17,0,7.58.64,12.5,2.46,2.24.75,3.52,1.07,4.49,1.07,1.92,0,2.67-.75,3.42-3.63h3.2v23.29h-2.99Z"/>
      <path class="cls-1" d="M322.31,23.18c-1.82-12.71-7.37-17.62-20.51-18.05v56.29c0,8.12,1.18,9.19,10.47,9.83v2.67h-38.13v-2.67c9.19-.75,10.36-1.92,10.36-9.83V5.13c-13.24.43-18.8,5.34-20.61,18.05h-3.1l.32-21.47h64.09l.21,21.47h-3.1Z"/>
      <path class="cls-1" d="M332.99,73.91v-2.67c8.01-.75,9.93-2.03,9.93-8.65V12.39c0-5.98-2.24-7.48-9.93-8.01V1.71h37.38v2.67c-7.9.32-10.15,2.03-10.15,8.01v50.2c0,6.94,2.03,8.12,10.15,8.65v2.67h-37.38Z"/>
      <path class="cls-1" d="M439.37,23.18c-1.82-12.71-7.37-17.62-20.51-18.05v56.29c0,8.12,1.18,9.19,10.47,9.83v2.67h-38.13v-2.67c9.19-.75,10.36-1.92,10.36-9.83V5.13c-13.24.43-18.8,5.34-20.61,18.05h-3.1l.32-21.47h64.09l.21,21.47h-3.1Z"/>
      <path class="cls-1" d="M522.79,4.38c-6.84,1.07-8.33,2.78-8.33,9.08v33.54c0,10.68-2.88,18.91-8.12,23.07-4.59,3.74-12.07,5.88-19.65,5.88s-14.74-1.82-19.76-5.77c-6.09-4.81-8.54-10.57-8.54-20.94V14.63c0-8.65-1.28-9.51-8.76-10.25V1.71h35.89v2.67c-8.33.64-10.15,2.03-10.15,10.79v33.97c0,14.85,5.23,21.58,15.59,21.58,12.5,0,18.8-7.9,18.8-23.71V14.95c0-7.8-2.46-9.93-10.36-10.57V1.71h23.39v2.67Z"/>
      <path class="cls-1" d="M592,23.18c-1.82-12.71-7.37-17.62-20.51-18.05v56.29c0,8.12,1.18,9.19,10.47,9.83v2.67h-38.13v-2.67c9.19-.75,10.36-1.92,10.36-9.83V5.13c-13.24.43-18.8,5.34-20.61,18.05h-3.1l.32-21.47h64.09l.21,21.47h-3.1Z"/>
      <path class="cls-1" d="M641.02,75.94c-22.11,0-37.7-15.59-37.7-37.7S619.45.11,641.67.11s37.28,15.92,37.28,38.02-15.81,37.81-37.92,37.81ZM640.7,3.63c-11.75,0-18.48,12.6-18.48,35.03s6.84,33.75,19.01,33.75,18.8-11.54,18.8-33.54-6.84-35.25-19.33-35.25Z"/>
    </g>
    <g>
      <path class="cls-1" d="M44.23,117.29c17.84,0,28.73,6.3,28.73,19.33,0,8.54-4.91,15.06-13.78,18.37-4.59,1.71-8.22,2.03-22.32,2.14v20.51c0,7.16.85,8.12,9.29,9.19v2.67H10.58v-2.67c2.03-.21,3.63-.43,4.81-.96,3.52-1.39,4.17-4.38,4.17-9.83v-45.61c0-8.33-1.5-9.83-8.97-10.47v-2.67h33.65ZM36.86,153.39c13.35-.11,17.73-3.74,17.73-15.59s-3.52-16.77-12.39-16.77c-3.52,0-5.34,1.28-5.34,3.74v28.62Z"/>
      <path class="cls-1" d="M108.31,189.49v-2.67l3.42-.32c3.52-.32,4.91-1.17,4.91-3.52s-1.28-6.09-4.91-14.53h-24.03l-1.39,3.63c-1.28,3.31-3.31,7.8-3.31,10.36,0,2.78,2.35,3.95,8.65,4.38v2.67h-21.58v-2.67c4.91-.85,6.52-2.78,10.57-12.82l23.61-58.21h2.99l23.71,55.76c5.45,12.92,7.37,15.27,11.75,15.27v2.67h-34.39ZM99.34,138.33l-10.04,25.96h20.83l-10.79-25.96Z"/>
      <path class="cls-1" d="M202.95,189.49l-22.11-33.43h-2.99v20.93c0,7.8,1.07,8.76,9.4,9.83v2.67h-36.1v-2.67c8.33-.96,9.4-1.71,9.4-10.15v-46.04c0-8.33-1.5-10.15-9.4-10.68v-2.67h32.9c20.83,0,31.62,6.09,31.62,18.37,0,4.81-1.71,9.72-4.81,12.6-2.99,2.67-5.77,4.38-11.96,6.09l21.26,30.12c.96,1.39,2.78,2.35,4.7,2.35v2.67h-21.9ZM177.85,152.64c13.99-.11,19.55-2.88,19.55-15.92,0-11.32-3.95-15.81-13.89-15.81-4.17,0-5.66,1.28-5.66,4.81v26.92Z"/>
      <path class="cls-1" d="M282.2,189.49l-22.11-33.43h-2.99v20.93c0,7.8,1.07,8.76,9.4,9.83v2.67h-36.1v-2.67c8.33-.96,9.4-1.71,9.4-10.15v-46.04c0-8.33-1.5-10.15-9.4-10.68v-2.67h32.9c20.83,0,31.62,6.09,31.62,18.37,0,4.81-1.71,9.72-4.81,12.6-2.99,2.67-5.77,4.38-11.96,6.09l21.26,30.12c.96,1.39,2.78,2.35,4.7,2.35v2.67h-21.9ZM257.1,152.64c13.99-.11,19.55-2.88,19.55-15.92,0-11.32-3.95-15.81-13.89-15.81-4.17,0-5.66,1.28-5.66,4.81v26.92Z"/>
      <path class="cls-1" d="M345.86,191.52c-22.11,0-37.7-15.59-37.7-37.7s16.13-38.13,38.35-38.13,37.28,15.92,37.28,38.02-15.81,37.81-37.92,37.81ZM345.54,119.21c-11.75,0-18.48,12.6-18.48,35.03s6.84,33.75,19.01,33.75,18.8-11.54,18.8-33.54-6.84-35.25-19.33-35.25Z"/>
      <path class="cls-1" d="M468.26,204.55c-6.94,2.67-11.96,3.74-19.12,3.74-9.4,0-18.37-3.42-24.35-9.4-2.46-2.46-3.74-4.49-5.98-9.19-16.34-4.91-25.42-18.91-25.42-35.46,0-23.18,15.92-38.56,37.81-38.56s37.81,15.38,37.81,38.88c0,18.26-10.15,30.44-27.02,35.57,1.92,3.95,2.99,5.55,5.02,7.58,3.63,3.63,8.12,5.55,13.14,5.55,2.14,0,3.95-.21,7.48-1.28l.64,2.56ZM431.09,119.21c-11.96,0-18.8,12.18-18.8,34.5s6.52,34.29,18.91,34.29,18.91-12.39,18.91-34.29-6.84-34.5-19.01-34.5Z"/>
      <path class="cls-1" d="M549.76,119.96c-6.84,1.07-8.33,2.78-8.33,9.08v33.54c0,10.68-2.88,18.91-8.12,23.07-4.59,3.74-12.07,5.87-19.65,5.87s-14.74-1.82-19.76-5.77c-6.09-4.81-8.54-10.57-8.54-20.94v-34.61c0-8.65-1.28-9.51-8.76-10.25v-2.67h35.89v2.67c-8.33.64-10.15,2.03-10.15,10.79v33.97c0,14.85,5.23,21.58,15.59,21.58,12.5,0,18.8-7.9,18.8-23.71v-32.04c0-7.8-2.46-9.93-10.36-10.57v-2.67h23.39v2.67Z"/>
      <path class="cls-1" d="M556.27,189.49v-2.67c8.01-.75,9.93-2.03,9.93-8.65v-50.2c0-5.98-2.24-7.48-9.93-8.01v-2.67h37.38v2.67c-7.9.32-10.15,2.03-10.15,8.01v50.2c0,6.94,2.03,8.12,10.15,8.65v2.67h-37.38Z"/>
      <path class="cls-1" d="M637.02,189.49v-2.67l3.42-.32c3.52-.32,4.91-1.17,4.91-3.52s-1.28-6.09-4.91-14.53h-24.03l-1.39,3.63c-1.28,3.31-3.31,7.8-3.31,10.36,0,2.78,2.35,3.95,8.65,4.38v2.67h-21.58v-2.67c4.91-.85,6.52-2.78,10.57-12.82l23.61-58.21h2.99l23.71,55.76c5.45,12.92,7.37,15.27,11.75,15.27v2.67h-34.39ZM628.05,138.33l-10.04,25.96h20.83l-10.79-25.96Z"/>
      <path class="cls-1" d="M740.73,189.49h-61.63v-2.67c7.8-.96,9.19-2.14,9.19-7.8v-51.06c0-6.09-1.92-7.58-9.19-8.01v-2.67l37.17-.11v2.67c-9.29.43-10.68,1.82-10.68,10.58v49.56c0,4.59,2.14,6.19,9.08,6.19,8.87,0,13.78-1.92,18.16-5.87,3.63-3.31,6.41-8.44,9.29-15.06h3.1l-4.49,24.25Z"/>
    </g>
    <line class="cls-2" x1="494.47" y1="206.07" x2="747.06" y2="206.07"/>
    <path class="cls-1" d="M25.97,247.82c-1.4.15-1.95.26-2.42.66-.7.62-1.06,1.43-1.06,4.33v19.03h-.66l-16.2-20.16v14.25c0,3.78.59,4.41,3.42,4.81v.7H.44v-.7c3.01-.33,3.56-.88,3.56-4.81v-16.16c-1.21-1.51-1.76-1.95-3.56-1.95v-.7h6.24l14.18,17.74v-12.49c0-1.87-.15-2.98-.7-3.6-.62-.7-1.29-.77-2.9-.96v-.7h8.7v.7Z"/>
    <path class="cls-1" d="M53.14,247.82c-3.08.29-3.45,1.18-3.45,4.67v9.37c0,3.56-.33,5.55-1.98,7.42-1.54,1.76-4.04,2.68-7.42,2.68-2.68,0-4.74-.55-6.24-1.69-2.02-1.5-2.97-4.08-2.97-7.97v-11.39c0-2.46-.4-2.86-3.31-3.08v-.7h10.39v.7c-2.94.26-3.34.7-3.34,3.45v11.46c0,2.86.15,4.52,1.62,5.95,1.06,1.03,2.61,1.65,4.7,1.65,2.35,0,4.41-.81,5.58-2.17,1.21-1.47,1.36-2.94,1.36-5.91v-9.66c0-3.78-.48-4.59-3.45-4.77v-.7h8.52v.7Z"/>
    <path class="cls-1" d="M74.74,271.44h-19.8v-.7c2.83-.18,3.2-.66,3.2-3.49v-16.01c0-2.72-.44-3.27-3.2-3.42v-.7h19.47l.15,5.25h-.92c-.55-3.31-1.4-3.86-5.66-3.86h-4.81c-1.03,0-1.29.15-1.29,1.32v8.08h5.55c3.16,0,3.71-.62,4.15-3.53h.84v8.59h-.84c-.44-3.08-.99-3.56-4.15-3.56h-5.55v8.92c0,1.54.99,1.73,3.71,1.73h1.32c5.25,0,6.83-.95,8.48-4.85h1.03l-1.69,6.21Z"/>
    <path class="cls-1" d="M93.98,254.43c-.44-1.62-.84-2.57-1.51-3.45-1.29-1.65-3.12-2.87-5.33-2.87s-3.71,1.47-3.71,3.49c0,2.5,2.72,4.04,6.57,6.28,3.89,2.28,5.69,4.41,5.69,7.2,0,4.11-3.23,6.87-7.49,6.87-1.54,0-2.98-.26-4.33-.84-.7-.29-1.32-.4-1.73-.4-.55,0-1.03.44-1.03,1.21h-.81l-1.07-7.79h.81c1.69,4.44,4.08,6.5,7.57,6.5,2.57,0,4.37-1.69,4.37-4.11,0-1.29-.37-2.13-1.06-2.9-1.29-1.4-3.82-3.01-6.17-4.26-3.31-1.76-4.48-4.04-4.48-6.32,0-4,2.75-6.43,6.39-6.43,1.51,0,2.46.22,3.86.81.66.29,1.25.44,1.62.44.62,0,1.03-.44,1.18-1.25h.77l.81,7.82h-.92Z"/>
    <path class="cls-1" d="M119.07,253.37c-.81-4.04-1.76-4.7-5.66-4.7h-2.17v18.69c0,2.79.51,3.23,3.53,3.38v.7h-10.72v-.7c3.05-.18,3.45-.59,3.45-3.82v-18.25h-2.2c-3.89,0-4.88.66-5.62,4.7h-.88l.26-6.24h20.64l.26,6.24h-.88Z"/>
    <path class="cls-1" d="M139.64,271.44l-8.74-11.31-2.06.07v7.12c0,2.79.44,3.23,3.27,3.42v.7h-10.14v-.7c2.75-.22,3.12-.62,3.12-3.86v-15.68c0-2.72-.29-3.16-3.12-3.38v-.7h9.99c3.49,0,6.1.88,7.68,2.17,1.21.99,1.8,2.79,1.8,4.41,0,3.2-2.06,5.33-6.65,6.02l7.35,9.29c1.06,1.36,1.84,1.58,3.45,1.73v.7h-5.95ZM128.84,258.84c3.53-.07,4.81-.33,6.5-1.25,1.32-.73,2.09-2.35,2.09-4.19,0-3.31-2.17-4.92-6.72-4.92-1.25,0-1.87.26-1.87,1.54v8.81Z"/>
    <path class="cls-1" d="M163.18,271.44v-.7c1.32,0,1.58-.07,2.02-.33.29-.15.51-.55.51-.88,0-.55-.26-1.54-.7-2.57l-1.51-3.45h-9.62l-1.69,4.19c-.18.48-.33,1.1-.33,1.54,0,1.14.81,1.51,2.57,1.51v.7h-7.31v-.7c2.13-.22,2.46-.99,4.63-6.13l7.57-17.92h.73l9.04,20.68c1.03,2.39,1.54,3.16,3.45,3.38v.7h-9.37ZM158.73,251.9l-4.22,10.1h8.48l-4.26-10.1Z"/>
    <path class="cls-1" d="M200.05,254.43c-.44-1.62-.84-2.57-1.51-3.45-1.29-1.65-3.12-2.87-5.33-2.87s-3.71,1.47-3.71,3.49c0,2.5,2.72,4.04,6.57,6.28,3.89,2.28,5.69,4.41,5.69,7.2,0,4.11-3.23,6.87-7.49,6.87-1.54,0-2.98-.26-4.33-.84-.7-.29-1.32-.4-1.73-.4-.55,0-1.03.44-1.03,1.21h-.81l-1.07-7.79h.81c1.69,4.44,4.08,6.5,7.57,6.5,2.57,0,4.37-1.69,4.37-4.11,0-1.29-.37-2.13-1.06-2.9-1.29-1.4-3.82-3.01-6.17-4.26-3.31-1.76-4.48-4.04-4.48-6.32,0-4,2.75-6.43,6.39-6.43,1.51,0,2.46.22,3.86.81.66.29,1.25.44,1.62.44.62,0,1.03-.44,1.18-1.25h.77l.81,7.82h-.92Z"/>
    <path class="cls-1" d="M225.14,271.44h-19.8v-.7c2.83-.18,3.2-.66,3.2-3.49v-16.01c0-2.72-.44-3.27-3.2-3.42v-.7h19.47l.15,5.25h-.92c-.55-3.31-1.4-3.86-5.66-3.86h-4.81c-1.03,0-1.29.15-1.29,1.32v8.08h5.55c3.16,0,3.71-.62,4.15-3.53h.84v8.59h-.84c-.44-3.08-.99-3.56-4.15-3.56h-5.55v8.92c0,1.54.99,1.73,3.71,1.73h1.32c5.25,0,6.83-.95,8.48-4.85h1.03l-1.69,6.21Z"/>
    <path class="cls-1" d="M254.04,247.82c-1.4.15-1.95.26-2.42.66-.7.62-1.06,1.43-1.06,4.33v19.03h-.66l-16.2-20.16v14.25c0,3.78.59,4.41,3.42,4.81v.7h-8.59v-.7c3.01-.33,3.56-.88,3.56-4.81v-16.16c-1.21-1.51-1.76-1.95-3.56-1.95v-.7h6.24l14.18,17.74v-12.49c0-1.87-.15-2.98-.7-3.6-.62-.7-1.29-.77-2.9-.96v-.7h8.7v.7ZM247.1,238.83c-.77,2.79-1.84,3.89-3.86,3.89-.92,0-1.47-.15-2.97-.88l-.84-.4c-.55-.26-1.07-.4-1.51-.4-.84,0-1.47.55-1.87,1.69h-1.06c.55-2.39,1.87-3.71,3.71-3.71.81,0,1.69.22,2.57.66l.88.44c.7.37,1.4.55,1.95.55.84,0,1.32-.48,1.95-1.84h1.06Z"/>
    <path class="cls-1" d="M268.58,271.95c-7.12,0-12.01-5.14-12.01-12.78s4.85-12.56,12.01-12.56,12.01,5.4,12.01,12.67-4.96,12.67-12.01,12.67ZM273.06,249.66c-1.32-1.1-2.79-1.73-4.52-1.73-1.98,0-3.82.81-5.25,2.46-1.58,1.8-2.53,5.36-2.53,8.85,0,4.37,1.07,7.68,3.31,9.73,1.25,1.14,2.86,1.65,4.55,1.65,1.84,0,3.45-.55,4.74-1.76,2.02-1.95,3.05-5.4,3.05-9.81s-1.25-7.64-3.34-9.4Z"/>
    <path class="cls-1" d="M300.87,271.44l-8.74-11.31-2.06.07v7.12c0,2.79.44,3.23,3.27,3.42v.7h-10.14v-.7c2.75-.22,3.12-.62,3.12-3.86v-15.68c0-2.72-.29-3.16-3.12-3.38v-.7h9.99c3.49,0,6.1.88,7.68,2.17,1.21.99,1.8,2.79,1.8,4.41,0,3.2-2.06,5.33-6.65,6.02l7.35,9.29c1.06,1.36,1.84,1.58,3.45,1.73v.7h-5.95ZM290.07,258.84c3.53-.07,4.81-.33,6.5-1.25,1.32-.73,2.09-2.35,2.09-4.19,0-3.31-2.17-4.92-6.72-4.92-1.25,0-1.87.26-1.87,1.54v8.81Z"/>
    <path class="cls-1" d="M324.41,271.44v-.7c1.32,0,1.58-.07,2.02-.33.29-.15.51-.55.51-.88,0-.55-.26-1.54-.7-2.57l-1.51-3.45h-9.62l-1.69,4.19c-.18.48-.33,1.1-.33,1.54,0,1.14.81,1.51,2.57,1.51v.7h-7.31v-.7c2.13-.22,2.46-.99,4.63-6.13l7.57-17.92h.73l9.04,20.68c1.03,2.39,1.54,3.16,3.45,3.38v.7h-9.37ZM319.96,251.9l-4.22,10.1h8.48l-4.26-10.1Z"/>
    <path class="cls-1" d="M355.48,247.13c4.74,0,8.52,1.17,11.02,3.34,2.39,2.06,3.64,4.92,3.64,8.7,0,4.37-1.73,7.82-5,9.92-2.28,1.47-5.55,2.35-9.26,2.35h-10.32v-.7c2.86-.18,3.23-.66,3.23-3.53v-15.98c0-2.9-.44-3.23-3.23-3.42v-.7h9.92ZM352.54,268.35c0,1.29.33,1.73,1.76,1.73,3.78,0,5.8-.44,8.01-1.91,2.57-1.73,3.82-4.63,3.82-8.78,0-3.82-1.18-6.35-3.49-8.37-2.17-1.91-4.48-2.53-8.15-2.53-1.4,0-1.95.33-1.95,1.54v18.33Z"/>
    <path class="cls-1" d="M392.46,271.44h-19.8v-.7c2.83-.18,3.2-.66,3.2-3.49v-16.01c0-2.72-.44-3.27-3.2-3.42v-.7h19.47l.15,5.25h-.92c-.55-3.31-1.4-3.86-5.66-3.86h-4.81c-1.03,0-1.29.15-1.29,1.32v8.08h5.55c3.16,0,3.71-.62,4.15-3.53h.84v8.59h-.84c-.44-3.08-.99-3.56-4.15-3.56h-5.55v8.92c0,1.54.99,1.73,3.71,1.73h1.32c5.25,0,6.83-.95,8.48-4.85h1.03l-1.69,6.21Z"/>
    <path class="cls-1" d="M425.52,271.44h-19.76v-.7c2.72-.15,3.2-.73,3.2-3.53v-15.83c0-2.83-.33-3.34-3.2-3.56v-.7h10.39v.7c-3.01.18-3.45.66-3.45,3.49v17.04c0,1.4.62,1.65,3.31,1.65h2.57c2.98,0,4.96-.66,6.21-2.24.48-.62.96-1.43,1.54-2.72h.96l-1.76,6.39Z"/>
    <path class="cls-1" d="M445.06,271.44v-.7c1.32,0,1.58-.07,2.02-.33.29-.15.51-.55.51-.88,0-.55-.26-1.54-.7-2.57l-1.51-3.45h-9.62l-1.69,4.19c-.18.48-.33,1.1-.33,1.54,0,1.14.81,1.51,2.57,1.51v.7h-7.31v-.7c2.13-.22,2.46-.99,4.63-6.13l7.57-17.92h.73l9.04,20.68c1.03,2.39,1.54,3.16,3.45,3.38v.7h-9.37ZM440.61,251.9l-4.22,10.1h8.48l-4.26-10.1Z"/>
    <path class="cls-1" d="M475.72,247.13c3.67,0,6.32.92,7.97,2.31,1.21,1.03,1.84,2.53,1.84,4.37,0,1.95-.73,3.6-2.09,4.81-2.13,1.91-3.93,2.24-7.86,2.24-.95,0-1.54-.04-2.53-.11v6.57c0,2.79.48,3.27,3.45,3.42v.7h-10.28v-.7c2.86-.22,3.08-.62,3.08-3.78v-15.76c0-2.72-.37-3.16-3.08-3.38v-.7h9.51ZM473.04,259.28c.84.07,1.51.11,2.24.11,4.04,0,6.24-2.09,6.24-5.4,0-4.04-2.2-5.51-7.2-5.51-1.06,0-1.29.33-1.29,1.32v9.48Z"/>
    <path class="cls-1" d="M505.1,271.44l-8.74-11.31-2.06.07v7.12c0,2.79.44,3.23,3.27,3.42v.7h-10.14v-.7c2.75-.22,3.12-.62,3.12-3.86v-15.68c0-2.72-.29-3.16-3.12-3.38v-.7h9.99c3.49,0,6.1.88,7.68,2.17,1.21.99,1.8,2.79,1.8,4.41,0,3.2-2.06,5.33-6.65,6.02l7.35,9.29c1.06,1.36,1.84,1.58,3.45,1.73v.7h-5.95ZM494.31,258.84c3.53-.07,4.81-.33,6.5-1.25,1.32-.73,2.09-2.35,2.09-4.19,0-3.31-2.17-4.92-6.72-4.92-1.25,0-1.87.26-1.87,1.54v8.81Z"/>
    <path class="cls-1" d="M532.28,271.44h-19.8v-.7c2.83-.18,3.2-.66,3.2-3.49v-16.01c0-2.72-.44-3.27-3.2-3.42v-.7h19.47l.15,5.25h-.92c-.55-3.31-1.4-3.86-5.66-3.86h-4.81c-1.03,0-1.29.15-1.29,1.32v8.08h5.55c3.16,0,3.71-.62,4.15-3.53h.84v8.59h-.84c-.44-3.08-.99-3.56-4.15-3.56h-5.55v8.92c0,1.54.99,1.73,3.71,1.73h1.32c5.25,0,6.83-.95,8.48-4.85h1.03l-1.69,6.21Z"/>
    <path class="cls-1" d="M551.53,254.43c-.44-1.62-.84-2.57-1.51-3.45-1.29-1.65-3.12-2.87-5.33-2.87s-3.71,1.47-3.71,3.49c0,2.5,2.72,4.04,6.57,6.28,3.89,2.28,5.69,4.41,5.69,7.2,0,4.11-3.23,6.87-7.49,6.87-1.54,0-2.98-.26-4.33-.84-.7-.29-1.32-.4-1.73-.4-.55,0-1.03.44-1.03,1.21h-.81l-1.07-7.79h.81c1.69,4.44,4.08,6.5,7.57,6.5,2.57,0,4.37-1.69,4.37-4.11,0-1.29-.37-2.13-1.06-2.9-1.29-1.4-3.82-3.01-6.17-4.26-3.31-1.76-4.48-4.04-4.48-6.32,0-4,2.75-6.43,6.39-6.43,1.51,0,2.46.22,3.86.81.66.29,1.25.44,1.62.44.62,0,1.03-.44,1.18-1.25h.77l.81,7.82h-.92Z"/>
    <path class="cls-1" d="M576.61,271.44h-19.8v-.7c2.83-.18,3.2-.66,3.2-3.49v-16.01c0-2.72-.44-3.27-3.2-3.42v-.7h19.47l.15,5.25h-.92c-.55-3.31-1.4-3.86-5.66-3.86h-4.81c-1.03,0-1.29.15-1.29,1.32v8.08h5.55c3.16,0,3.71-.62,4.15-3.53h.84v8.59h-.84c-.44-3.08-.99-3.56-4.15-3.56h-5.55v8.92c0,1.54.99,1.73,3.71,1.73h1.32c5.25,0,6.83-.95,8.48-4.85h1.03l-1.69,6.21Z"/>
    <path class="cls-1" d="M605.52,247.82c-1.4.15-1.95.26-2.42.66-.7.62-1.06,1.43-1.06,4.33v19.03h-.66l-16.2-20.16v14.25c0,3.78.59,4.41,3.42,4.81v.7h-8.59v-.7c3.01-.33,3.56-.88,3.56-4.81v-16.16c-1.21-1.51-1.76-1.95-3.56-1.95v-.7h6.24l14.18,17.74v-12.49c0-1.87-.15-2.98-.7-3.6-.62-.7-1.29-.77-2.9-.96v-.7h8.7v.7Z"/>
    <path class="cls-1" d="M627.7,253.37c-.81-4.04-1.76-4.7-5.66-4.7h-2.17v18.69c0,2.79.51,3.23,3.53,3.38v.7h-10.72v-.7c3.05-.18,3.45-.59,3.45-3.82v-18.25h-2.2c-3.89,0-4.88.66-5.62,4.7h-.88l.26-6.24h20.64l.26,6.24h-.88Z"/>
    <path class="cls-1" d="M644.63,271.44v-.7c1.32,0,1.58-.07,2.02-.33.29-.15.51-.55.51-.88,0-.55-.26-1.54-.7-2.57l-1.51-3.45h-9.62l-1.69,4.19c-.18.48-.33,1.1-.33,1.54,0,1.14.81,1.51,2.57,1.51v.7h-7.31v-.7c2.13-.22,2.46-.99,4.63-6.13l7.57-17.92h.74l9.04,20.68c1.03,2.39,1.54,3.16,3.45,3.38v.7h-9.37ZM640.19,251.9l-4.22,10.1h8.48l-4.26-10.1Z"/>
    <path class="cls-1" d="M677.61,267.29c-2.13,3.05-5.69,4.67-10.03,4.67-3.34,0-6.54-1.18-8.67-3.27-2.24-2.2-3.53-5.55-3.53-9.18s1.21-6.72,3.31-9.07c2.35-2.61,5.51-3.82,8.92-3.82,1.43,0,2.9.15,4.37.55.77.22,1.91.66,2.53.66.7,0,1.32-.44,1.54-1.21h.73l.33,8.34h-.84c-.44-2.02-.99-3.08-1.91-4.08-1.62-1.73-3.53-2.79-5.91-2.79-5.55,0-8.81,4.48-8.81,10.83,0,4.04.92,6.91,2.64,8.78,1.62,1.73,4,2.64,6.54,2.64,3.31,0,5.33-1.1,8.08-3.71l.7.66Z"/>
    <path class="cls-1" d="M680.25,271.44v-.7c3.08-.11,3.56-.55,3.56-3.42v-16.12c0-2.9-.44-3.2-3.56-3.38v-.7h10.91v.7c-3.08.15-3.6.59-3.6,3.38v16.12c0,2.75.59,3.31,3.6,3.42v.7h-10.91Z"/>
    <path class="cls-1" d="M705.82,271.95c-7.12,0-12.01-5.14-12.01-12.78s4.85-12.56,12.01-12.56,12.01,5.4,12.01,12.67-4.96,12.67-12.01,12.67ZM710.3,249.66c-1.32-1.1-2.79-1.73-4.52-1.73-1.98,0-3.82.81-5.25,2.46-1.58,1.8-2.53,5.36-2.53,8.85,0,4.37,1.07,7.68,3.31,9.73,1.25,1.14,2.87,1.65,4.55,1.65,1.84,0,3.45-.55,4.74-1.76,2.02-1.95,3.05-5.4,3.05-9.81s-1.25-7.64-3.34-9.4ZM707.47,238.2c.66-.66.99-.85,1.54-.85.81,0,1.29.44,1.29,1.18,0,.59-.33,1.07-1.1,1.54l-5.66,3.56h-1.47l5.4-5.44Z"/>
    <path class="cls-1" d="M745.77,247.82c-1.4.15-1.95.26-2.42.66-.7.62-1.07,1.43-1.07,4.33v19.03h-.66l-16.2-20.16v14.25c0,3.78.59,4.41,3.42,4.81v.7h-8.59v-.7c3.01-.33,3.56-.88,3.56-4.81v-16.16c-1.21-1.51-1.76-1.95-3.56-1.95v-.7h6.24l14.18,17.74v-12.49c0-1.87-.15-2.98-.7-3.6-.62-.7-1.29-.77-2.9-.96v-.7h8.71v.7Z"/>
    <g>
      <path class="cls-1" d="M76.64,73.91v-2.67c8.01-.75,9.93-2.03,9.93-8.65V12.39c0-5.98-2.24-7.48-9.93-8.01V1.71h37.38v2.67c-7.9.32-10.15,2.03-10.15,8.01v50.2c0,6.94,2.03,8.12,10.15,8.65v2.67h-37.38Z"/>
      <path class="cls-1" d="M193.07,4.38c-6.94,1.07-8.33,2.14-8.33,8.87v62.59h-2.99l-47.74-58.21v42.3c0,8.22,1.82,10.36,10.04,11.32v2.67h-24.14v-2.67c7.8-.96,9.4-2.46,9.4-8.97V12.07c-4.49-6.2-6.94-7.69-9.08-7.69V1.71h22.54l37.28,45.93V15.7c0-8.54-1.92-10.58-9.83-11.32V1.71h22.86v2.67Z"/>
      <path class="cls-1" d="M246.15,23.29c-2.14-6.94-3.85-10.15-7.48-13.88-3.85-3.95-8.33-5.98-13.14-5.98-7.37,0-11.75,4.49-11.75,10.58,0,5.23,2.46,7.69,11,12.18,5.23,2.78,10.36,5.23,15.81,8.22,6.84,3.74,11.64,10.68,11.64,18.8,0,13.46-10.68,22.75-26.49,22.75-4.7,0-8.65-.75-13.89-2.56-2.35-.75-3.52-1.07-4.38-1.07-1.71,0-2.56.85-3.2,3.63h-3.1v-26.49h3.1c1.82,7.58,3.31,11.32,6.41,15.27,4.06,5.13,9.19,7.69,15.38,7.69,8.22,0,13.46-4.7,13.46-12.07,0-3.84-2.46-6.84-6.09-9.4-3.63-2.56-8.44-4.7-13.03-6.94-12.07-5.77-18.26-11.64-18.26-22.43C202.14,8.01,211.01.11,225.53.11c4.17,0,7.58.64,12.5,2.46,2.24.75,3.52,1.07,4.49,1.07,1.92,0,2.67-.75,3.42-3.63h3.2v23.29h-2.99Z"/>
      <path class="cls-1" d="M322.31,23.18c-1.82-12.71-7.37-17.62-20.51-18.05v56.29c0,8.12,1.18,9.19,10.47,9.83v2.67h-38.13v-2.67c9.19-.75,10.36-1.92,10.36-9.83V5.13c-13.24.43-18.8,5.34-20.61,18.05h-3.1l.32-21.47h64.09l.21,21.47h-3.1Z"/>
      <path class="cls-1" d="M332.99,73.91v-2.67c8.01-.75,9.93-2.03,9.93-8.65V12.39c0-5.98-2.24-7.48-9.93-8.01V1.71h37.38v2.67c-7.9.32-10.15,2.03-10.15,8.01v50.2c0,6.94,2.03,8.12,10.15,8.65v2.67h-37.38Z"/>
      <path class="cls-1" d="M439.37,23.18c-1.82-12.71-7.37-17.62-20.51-18.05v56.29c0,8.12,1.18,9.19,10.47,9.83v2.67h-38.13v-2.67c9.19-.75,10.36-1.92,10.36-9.83V5.13c-13.24.43-18.8,5.34-20.61,18.05h-3.1l.32-21.47h64.09l.21,21.47h-3.1Z"/>
      <path class="cls-1" d="M522.79,4.38c-6.84,1.07-8.33,2.78-8.33,9.08v33.54c0,10.68-2.88,18.91-8.12,23.07-4.59,3.74-12.07,5.88-19.65,5.88s-14.74-1.82-19.76-5.77c-6.09-4.81-8.54-10.57-8.54-20.94V14.63c0-8.65-1.28-9.51-8.76-10.25V1.71h35.89v2.67c-8.33.64-10.15,2.03-10.15,10.79v33.97c0,14.85,5.23,21.58,15.59,21.58,12.5,0,18.8-7.9,18.8-23.71V14.95c0-7.8-2.46-9.93-10.36-10.57V1.71h23.39v2.67Z"/>
      <path class="cls-1" d="M592,23.18c-1.82-12.71-7.37-17.62-20.51-18.05v56.29c0,8.12,1.18,9.19,10.47,9.83v2.67h-38.13v-2.67c9.19-.75,10.36-1.92,10.36-9.83V5.13c-13.24.43-18.8,5.34-20.61,18.05h-3.1l.32-21.47h64.09l.21,21.47h-3.1Z"/>
      <path class="cls-1" d="M641.02,75.94c-22.11,0-37.7-15.59-37.7-37.7S619.45.11,641.67.11s37.28,15.92,37.28,38.02-15.81,37.81-37.92,37.81ZM640.7,3.63c-11.75,0-18.48,12.6-18.48,35.03s6.84,33.75,19.01,33.75,18.8-11.54,18.8-33.54-6.84-35.25-19.33-35.25Z"/>
    </g>
    <g>
      <path class="cls-1" d="M44.23,117.29c17.84,0,28.73,6.3,28.73,19.33,0,8.54-4.91,15.06-13.78,18.37-4.59,1.71-8.22,2.03-22.32,2.14v20.51c0,7.16.85,8.12,9.29,9.19v2.67H10.58v-2.67c2.03-.21,3.63-.43,4.81-.96,3.52-1.39,4.17-4.38,4.17-9.83v-45.61c0-8.33-1.5-9.83-8.97-10.47v-2.67h33.65ZM36.86,153.39c13.35-.11,17.73-3.74,17.73-15.59s-3.52-16.77-12.39-16.77c-3.52,0-5.34,1.28-5.34,3.74v28.62Z"/>
      <path class="cls-1" d="M108.31,189.49v-2.67l3.42-.32c3.52-.32,4.91-1.17,4.91-3.52s-1.28-6.09-4.91-14.53h-24.03l-1.39,3.63c-1.28,3.31-3.31,7.8-3.31,10.36,0,2.78,2.35,3.95,8.65,4.38v2.67h-21.58v-2.67c4.91-.85,6.52-2.78,10.57-12.82l23.61-58.21h2.99l23.71,55.76c5.45,12.92,7.37,15.27,11.75,15.27v2.67h-34.39ZM99.34,138.33l-10.04,25.96h20.83l-10.79-25.96Z"/>
      <path class="cls-1" d="M202.95,189.49l-22.11-33.43h-2.99v20.93c0,7.8,1.07,8.76,9.4,9.83v2.67h-36.1v-2.67c8.33-.96,9.4-1.71,9.4-10.15v-46.04c0-8.33-1.5-10.15-9.4-10.68v-2.67h32.9c20.83,0,31.62,6.09,31.62,18.37,0,4.81-1.71,9.72-4.81,12.6-2.99,2.67-5.77,4.38-11.96,6.09l21.26,30.12c.96,1.39,2.78,2.35,4.7,2.35v2.67h-21.9ZM177.85,152.64c13.99-.11,19.55-2.88,19.55-15.92,0-11.32-3.95-15.81-13.89-15.81-4.17,0-5.66,1.28-5.66,4.81v26.92Z"/>
      <path class="cls-1" d="M282.2,189.49l-22.11-33.43h-2.99v20.93c0,7.8,1.07,8.76,9.4,9.83v2.67h-36.1v-2.67c8.33-.96,9.4-1.71,9.4-10.15v-46.04c0-8.33-1.5-10.15-9.4-10.68v-2.67h32.9c20.83,0,31.62,6.09,31.62,18.37,0,4.81-1.71,9.72-4.81,12.6-2.99,2.67-5.77,4.38-11.96,6.09l21.26,30.12c.96,1.39,2.78,2.35,4.7,2.35v2.67h-21.9ZM257.1,152.64c13.99-.11,19.55-2.88,19.55-15.92,0-11.32-3.95-15.81-13.89-15.81-4.17,0-5.66,1.28-5.66,4.81v26.92Z"/>
      <path class="cls-1" d="M345.86,191.52c-22.11,0-37.7-15.59-37.7-37.7s16.13-38.13,38.35-38.13,37.28,15.92,37.28,38.02-15.81,37.81-37.92,37.81ZM345.54,119.21c-11.75,0-18.48,12.6-18.48,35.03s6.84,33.75,19.01,33.75,18.8-11.54,18.8-33.54-6.84-35.25-19.33-35.25Z"/>
      <path class="cls-1" d="M468.26,204.55c-6.94,2.67-11.96,3.74-19.12,3.74-9.4,0-18.37-3.42-24.35-9.4-2.46-2.46-3.74-4.49-5.98-9.19-16.34-4.91-25.42-18.91-25.42-35.46,0-23.18,15.92-38.56,37.81-38.56s37.81,15.38,37.81,38.88c0,18.26-10.15,30.44-27.02,35.57,1.92,3.95,2.99,5.55,5.02,7.58,3.63,3.63,8.12,5.55,13.14,5.55,2.14,0,3.95-.21,7.48-1.28l.64,2.56ZM431.09,119.21c-11.96,0-18.8,12.18-18.8,34.5s6.52,34.29,18.91,34.29,18.91-12.39,18.91-34.29-6.84-34.5-19.01-34.5Z"/>
      <path class="cls-1" d="M549.76,119.96c-6.84,1.07-8.33,2.78-8.33,9.08v33.54c0,10.68-2.88,18.91-8.12,23.07-4.59,3.74-12.07,5.87-19.65,5.87s-14.74-1.82-19.76-5.77c-6.09-4.81-8.54-10.57-8.54-20.94v-34.61c0-8.65-1.28-9.51-8.76-10.25v-2.67h35.89v2.67c-8.33.64-10.15,2.03-10.15,10.79v33.97c0,14.85,5.23,21.58,15.59,21.58,12.5,0,18.8-7.9,18.8-23.71v-32.04c0-7.8-2.46-9.93-10.36-10.57v-2.67h23.39v2.67Z"/>
      <path class="cls-1" d="M556.27,189.49v-2.67c8.01-.75,9.93-2.03,9.93-8.65v-50.2c0-5.98-2.24-7.48-9.93-8.01v-2.67h37.38v2.67c-7.9.32-10.15,2.03-10.15,8.01v50.2c0,6.94,2.03,8.12,10.15,8.65v2.67h-37.38Z"/>
      <path class="cls-1" d="M637.02,189.49v-2.67l3.42-.32c3.52-.32,4.91-1.17,4.91-3.52s-1.28-6.09-4.91-14.53h-24.03l-1.39,3.63c-1.28,3.31-3.31,7.8-3.31,10.36,0,2.78,2.35,3.95,8.65,4.38v2.67h-21.58v-2.67c4.91-.85,6.52-2.78,10.57-12.82l23.61-58.21h2.99l23.71,55.76c5.45,12.92,7.37,15.27,11.75,15.27v2.67h-34.39ZM628.05,138.33l-10.04,25.96h20.83l-10.79-25.96Z"/>
      <path class="cls-1" d="M740.73,189.49h-61.63v-2.67c7.8-.96,9.19-2.14,9.19-7.8v-51.06c0-6.09-1.92-7.58-9.19-8.01v-2.67l37.17-.11v2.67c-9.29.43-10.68,1.82-10.68,10.58v49.56c0,4.59,2.14,6.19,9.08,6.19,8.87,0,13.78-1.92,18.16-5.87,3.63-3.31,6.41-8.44,9.29-15.06h3.1l-4.49,24.25Z"/>
    </g>
    <line class="cls-2" y1="206.07" x2="405.29" y2="206.07"/>
  </g>
</svg>